<svg width="97" height="65" viewBox="0 0 97 65" fill="none" xmlns="http://www.w3.org/2000/svg">
<g clip-path="url(#clip0_418_835)">
<path d="M34.4052 8.94693C20.464 16.4981 15.6772 33.2575 23.7261 46.3364C23.8081 46.474 23.9184 46.5951 24.0507 46.6924C24.183 46.7897 24.3345 46.8614 24.4967 46.9033C24.6588 46.9452 24.8281 46.9565 24.9948 46.9365C25.1616 46.9164 25.3224 46.8655 25.4679 46.7866C25.6136 46.7078 25.741 46.6025 25.8428 46.4771C25.9447 46.3516 26.0191 46.2085 26.0614 46.0558C26.1037 45.9032 26.1133 45.7442 26.0896 45.588C26.0659 45.4319 26.0094 45.2818 25.9233 45.1463C18.5599 33.1814 22.92 17.9161 35.6737 11.0081C43.5177 6.75948 52.6847 6.69005 60.302 10.0358L55.6633 12.5483C55.5165 12.6252 55.3875 12.7288 55.2837 12.8528C55.1799 12.9769 55.1036 13.1191 55.0588 13.2712C55.0143 13.4232 55.0023 13.582 55.0236 13.7385C55.045 13.895 55.0992 14.0459 55.1833 14.1824C55.2673 14.319 55.3794 14.4386 55.5132 14.5341C55.6469 14.6297 55.7996 14.6993 55.9622 14.7392C56.125 14.7789 56.2944 14.7878 56.4608 14.7656C56.6272 14.7434 56.7873 14.6903 56.9317 14.6095L65.7202 9.84938L60.6462 1.60452C60.5633 1.46555 60.4515 1.34357 60.3176 1.24585C60.1836 1.14811 60.03 1.07659 59.8661 1.03553C59.7021 0.994463 59.531 0.984689 59.3629 1.00678C59.1948 1.02887 59.0332 1.08238 58.8876 1.16414C58.5992 1.32601 58.391 1.5886 58.3088 1.89428C58.2266 2.19995 58.2771 2.52372 58.4491 2.79456L61.6537 8.00195C53.2572 4.21379 43.0746 4.25128 34.4052 8.94693ZM72.5012 18.525C72.2129 18.6869 72.0047 18.9495 71.9225 19.2551C71.8404 19.5609 71.8907 19.8846 72.0627 20.1554C79.4261 32.1203 75.066 47.3857 62.3123 54.2937C54.4682 58.5423 45.3013 58.6117 37.6839 55.2661L42.3227 52.7534C42.4695 52.6766 42.5985 52.5731 42.7023 52.449C42.806 52.3249 42.8824 52.1826 42.927 52.0306C42.9718 51.8785 42.9837 51.7197 42.9624 51.5632C42.941 51.4068 42.8867 51.2559 42.8027 51.1193C42.7187 50.9828 42.6066 50.8632 42.4728 50.7676C42.339 50.6721 42.1864 50.6024 42.0237 50.5627C41.8611 50.5229 41.6916 50.5139 41.5251 50.5362C41.3587 50.5584 41.1987 50.6115 41.0543 50.6922L32.2657 55.4524L37.3398 63.6973C37.4219 63.835 37.5321 63.956 37.6645 64.0532C37.7967 64.1506 37.9483 64.2224 38.1103 64.2642C38.2724 64.3061 38.4417 64.3174 38.6085 64.2973C38.7752 64.2773 38.9361 64.2264 39.0817 64.1475C39.2273 64.0686 39.3547 63.9634 39.4566 63.838C39.5584 63.7125 39.6327 63.5693 39.675 63.4167C39.7174 63.2641 39.727 63.1051 39.7032 62.9489C39.6796 62.7928 39.623 62.6426 39.537 62.5072L36.3322 57.2999C44.7288 61.0879 54.9115 61.0505 63.5809 56.3549C77.522 48.8038 82.3088 32.0443 74.2598 18.9655C74.177 18.8265 74.0653 18.7045 73.9313 18.6068C73.7972 18.509 73.6438 18.4374 73.4798 18.3964C73.3158 18.3554 73.1447 18.3456 72.9766 18.3677C72.8085 18.3898 72.6468 18.4432 72.5012 18.525Z" fill="black"/>
<path d="M54.5687 11.0991L55.8161 10.3324L54.3604 10.028C48.5291 8.80879 42.2153 9.53173 36.6293 12.5573C24.801 18.9639 20.7479 33.1546 27.5771 44.2514C29.4406 47.2794 31.9343 49.7424 34.7939 51.6235L35.1227 51.8398L35.4704 51.6515L40.1028 49.1423C41.6219 48.3196 43.5638 48.8078 44.4409 50.2328C45.3179 51.658 44.7975 53.4797 43.2785 54.3025L43.5934 54.8142L43.7233 55.0253L43.6633 55.2796C49.4851 56.4884 55.7862 55.7631 61.3609 52.7437C73.1893 46.3371 77.2424 32.1464 70.4132 21.0496C68.5496 18.0215 66.056 15.5586 63.1964 13.6775L62.8676 13.4611L62.5199 13.6495L57.8874 16.1586C56.3683 16.9814 54.4264 16.4932 53.5494 15.0682C52.7055 13.6968 53.1668 11.9607 54.5687 11.0991Z" fill="#EB5B25" stroke="white"/>
<path d="M93.2208 16.8655H3.77923C2.0399 16.8655 0.629883 18.1883 0.629883 19.82V45.4824C0.629883 47.1141 2.0399 48.4369 3.77923 48.4369H93.2208C94.9601 48.4369 96.3701 47.1141 96.3701 45.4824V19.82C96.3701 18.1883 94.9601 16.8655 93.2208 16.8655Z" fill="black" stroke="white"/>
<path d="M26.767 26.3636V38H24.6591V28.4148H24.5909L21.8693 30.1534V28.2216L24.7614 26.3636H26.767ZM33.767 38.1591C33.0095 38.1591 32.3314 38.017 31.733 37.733C31.1345 37.4451 30.6591 37.0511 30.3068 36.5511C29.9583 36.0511 29.7727 35.4792 29.75 34.8352H31.7955C31.8333 35.3125 32.0398 35.7027 32.4148 36.0057C32.7898 36.3049 33.2405 36.4545 33.767 36.4545C34.1799 36.4545 34.5473 36.3598 34.8693 36.1705C35.1913 35.9811 35.4451 35.7178 35.6307 35.3807C35.8163 35.0436 35.9072 34.6591 35.9034 34.2273C35.9072 33.7879 35.8144 33.3977 35.625 33.0568C35.4356 32.7159 35.1761 32.4489 34.8466 32.2557C34.517 32.0587 34.1383 31.9602 33.7102 31.9602C33.3617 31.9564 33.0189 32.0208 32.6818 32.1534C32.3447 32.286 32.0777 32.4602 31.8807 32.6761L29.9773 32.3636L30.5852 26.3636H37.3352V28.125H32.3295L31.9943 31.2102H32.0625C32.2784 30.9564 32.5833 30.7462 32.9773 30.5795C33.3712 30.4091 33.803 30.3239 34.2727 30.3239C34.9773 30.3239 35.6061 30.4905 36.1591 30.8239C36.7121 31.1534 37.1477 31.608 37.4659 32.1875C37.7841 32.767 37.9432 33.4299 37.9432 34.1761C37.9432 34.9451 37.7652 35.6307 37.4091 36.233C37.0568 36.8314 36.5663 37.303 35.9375 37.6477C35.3125 37.9886 34.589 38.1591 33.767 38.1591Z" fill="white"/>
<path d="M45.4441 37.7161C49.5095 37.7161 51.5503 35.8471 51.5503 31.9877C51.5503 28.3257 49.8982 26.3655 45.3794 26.3655H42.3344V37.7161H45.4441ZM44.9421 27.7786H45.7032C47.5659 27.7786 48.813 28.7664 48.813 31.9724C48.813 35.3913 47.5983 36.303 45.8005 36.303H44.9421V27.7786Z" fill="white" fill-opacity="0.92"/>
<path d="M56.4579 36.3486C55.5509 36.3486 55.146 35.9231 55.146 35.1177C55.146 34.3124 55.5185 33.963 56.4418 33.887L57.8347 33.7655V35.9686C57.5269 36.151 57.0734 36.3486 56.4579 36.3486ZM57.9318 37.7161H60.3775V31.6533C60.3775 29.6477 59.0332 28.66 56.3769 28.66C55.227 28.66 54.158 28.8423 53.494 29.055V30.7721C54.2551 30.4074 55.1621 30.1491 56.0691 30.1491C57.2678 30.1491 57.8347 30.7113 57.8347 31.7446V32.4586L55.3404 32.8233C53.5425 33.0817 52.7003 33.9174 52.7003 35.3305C52.7003 36.85 53.7045 37.7921 55.3565 37.7921C56.7494 37.7921 57.5107 37.2602 57.9318 36.8652V37.7161Z" fill="white" fill-opacity="0.92"/>
<path d="M68.1656 36.1966L70.5626 28.7359H68.5218L67.3394 32.6714C66.8698 34.2821 66.5297 35.5888 66.4973 35.8471H66.4324C66.3839 35.5737 66.0114 34.2821 65.5254 32.6714L64.3108 28.7359H61.5572L64.6346 37.4426H65.7522C65.2663 38.5366 64.5699 39.1444 63.3389 39.1444C62.934 39.1444 62.5615 39.0988 62.1404 38.9773V40.4968C62.5615 40.5879 62.934 40.6335 63.4037 40.6335C65.9789 40.6335 67.2586 38.9773 68.1656 36.1966Z" fill="white" fill-opacity="0.92"/>
<path d="M77.6669 35.0266C77.6669 32.5955 73.8607 32.2459 73.8607 30.8784C73.8607 30.4074 74.2332 30.0731 75.0916 30.0731C75.8691 30.0731 76.7437 30.3314 77.3591 30.6809V28.9791C76.8085 28.7968 75.9825 28.66 75.0268 28.66C72.8079 28.66 71.4474 29.7844 71.4474 31.2886C71.4474 33.9326 75.2536 34.0237 75.2536 35.4977C75.2536 36.0599 74.7838 36.3941 73.8768 36.3941C73.0023 36.3941 72.0628 36.0599 71.415 35.6344V37.4122C71.8847 37.6097 72.8403 37.7921 73.8444 37.7921C76.1769 37.7921 77.6669 36.6981 77.6669 35.0266Z" fill="white" fill-opacity="0.92"/>
</g>
<defs>
<clipPath id="clip0_418_835">
<rect width="97" height="65" fill="white"/>
</clipPath>
</defs>
</svg>
