<svg width="32" height="32" viewBox="0 0 32 32" fill="none" xmlns="http://www.w3.org/2000/svg">
<path d="M8.62872 1.92004C5.29643 1.92004 2.55997 4.47845 2.55997 7.68004C2.55997 10.8816 5.29643 13.44 8.62872 13.44C10.1004 13.44 11.3688 12.9083 12.4162 12.1488C12.422 12.1461 12.428 12.1478 12.4337 12.145L12.4312 12.14C12.4657 12.1149 12.511 12.1032 12.545 12.0775C12.6717 11.9822 12.7586 11.8433 12.7887 11.6876C12.8189 11.5319 12.7902 11.3706 12.7081 11.2349C12.6261 11.0992 12.4966 10.9987 12.3448 10.953C12.1929 10.9073 12.0295 10.9196 11.8862 10.9875C11.6187 11.1141 11.2515 11.1725 10.8512 11.1725C8.74678 11.1726 7.03997 9.65454 7.03997 7.68004C7.03997 5.84964 8.76857 4.18754 10.8512 4.18754C11.1945 4.18754 11.5946 4.28763 11.9675 4.40504C12.1117 4.45096 12.2675 4.4443 12.4072 4.38626C12.547 4.32821 12.6616 4.22253 12.7308 4.08797C12.8001 3.95341 12.8194 3.79868 12.7854 3.65123C12.7513 3.50378 12.6662 3.37316 12.545 3.28254C11.4765 2.47616 10.1555 1.92004 8.62872 1.92004ZM8.62872 3.20004C8.76099 3.20004 8.86831 3.25517 8.99622 3.26504C7.12636 3.97311 5.75997 5.68707 5.75997 7.68004C5.75997 9.73739 7.11835 11.407 8.96497 12.1C8.84757 12.1083 8.74978 12.16 8.62872 12.16C5.94374 12.16 3.83997 10.154 3.83997 7.68004C3.83997 5.20611 5.94374 3.20004 8.62872 3.20004ZM17.6 3.84004C17.0701 3.84004 16.64 4.27012 16.64 4.80004C16.64 5.32996 17.0701 5.76004 17.6 5.76004C18.1299 5.76004 18.56 5.32996 18.56 4.80004C18.56 4.27012 18.1299 3.84004 17.6 3.84004ZM23.68 4.47129C23.5542 4.47194 23.4314 4.50963 23.3269 4.57966C23.2224 4.64968 23.1409 4.74895 23.0925 4.86504L22.6837 5.80629C22.1644 7.00177 22.3555 8.41165 23.1975 9.38004C23.6849 9.94016 23.8238 10.8659 23.5025 11.6038L23.0925 12.545C23.0248 12.7009 23.0219 12.8772 23.0842 13.0352C23.1466 13.1932 23.2692 13.3199 23.425 13.3875C23.5808 13.4552 23.7571 13.4581 23.9151 13.3958C24.0731 13.3334 24.1998 13.2109 24.2675 13.055L24.6762 12.115V12.1138C25.1965 10.9179 25.0047 9.50793 24.1625 8.54004C23.6748 7.97915 23.5364 7.05464 23.8575 6.31629L24.2675 5.37504C24.3117 5.27723 24.3306 5.16986 24.3225 5.06281C24.3143 4.95577 24.2794 4.8525 24.2209 4.76249C24.1624 4.67248 24.0822 4.59864 23.9877 4.54776C23.8931 4.49687 23.7873 4.47058 23.68 4.47129ZM28.1512 4.47129C28.0147 4.47388 27.8827 4.52003 27.7743 4.60301C27.6659 4.686 27.5868 4.80146 27.5487 4.93254L27.1387 6.26504C26.6621 7.81764 26.8225 9.60457 27.615 10.895C28.1526 11.7705 28.3222 13.2925 27.9575 14.4788L27.5487 15.8125C27.5195 15.894 27.5071 15.9806 27.5123 16.067C27.5174 16.1535 27.5401 16.2379 27.5789 16.3153C27.6177 16.3928 27.6717 16.4615 27.7378 16.5174C27.8039 16.5733 27.8807 16.6152 27.9635 16.6406C28.0462 16.666 28.1333 16.6744 28.2194 16.6651C28.3055 16.6559 28.3888 16.6293 28.4643 16.587C28.5398 16.5446 28.606 16.4874 28.6587 16.4187C28.7115 16.3501 28.7497 16.2714 28.7712 16.1875L29.1812 14.855C29.6587 13.3021 29.4973 11.5154 28.705 10.225C28.1675 9.34976 27.9982 7.8279 28.3625 6.64129L28.7712 5.30754C28.8024 5.21066 28.8101 5.10774 28.7936 5.0073C28.777 4.90687 28.7368 4.81183 28.6762 4.73006C28.6155 4.6483 28.5363 4.58217 28.445 4.53717C28.3537 4.49216 28.253 4.46958 28.1512 4.47129ZM12.8 7.04004C12.4467 7.04004 12.16 7.32676 12.16 7.68004C12.16 8.03332 12.4467 8.32004 12.8 8.32004C13.1533 8.32004 13.44 8.03332 13.44 7.68004C13.44 7.32676 13.1533 7.04004 12.8 7.04004ZM16 11.52C15.4133 11.52 14.8919 11.7631 14.5612 12.135C14.2306 12.507 14.08 12.9778 14.08 13.44C14.08 13.7247 14.255 13.9777 14.3762 14.2438C7.70334 15.0559 2.50372 20.6864 2.50372 27.5763V28.16H1.27997C1.19517 28.1588 1.11097 28.1745 1.03227 28.2061C0.953567 28.2378 0.881938 28.2847 0.821541 28.3443C0.761145 28.4038 0.713186 28.4748 0.680451 28.553C0.647716 28.6313 0.630859 28.7152 0.630859 28.8C0.630859 28.8849 0.647716 28.9688 0.680451 29.0471C0.713186 29.1253 0.761145 29.1963 0.821541 29.2558C0.881938 29.3154 0.953567 29.3623 1.03227 29.3939C1.11097 29.4256 1.19517 29.4412 1.27997 29.44H3.03747C3.10659 29.4515 3.17711 29.4515 3.24622 29.44H28.7475C28.817 29.4516 28.888 29.4516 28.9575 29.44H30.72C30.8048 29.4412 30.889 29.4256 30.9677 29.3939C31.0464 29.3623 31.118 29.3154 31.1784 29.2558C31.2388 29.1963 31.2868 29.1253 31.3195 29.0471C31.3522 28.9688 31.3691 28.8849 31.3691 28.8C31.3691 28.7152 31.3522 28.6313 31.3195 28.553C31.2868 28.4748 31.2388 28.4038 31.1784 28.3443C31.118 28.2847 31.0464 28.2378 30.9677 28.2061C30.889 28.1745 30.8048 28.1588 30.72 28.16H29.4962V27.5763C29.4962 20.6864 24.2966 15.0559 17.6237 14.2438C17.745 13.9777 17.92 13.7247 17.92 13.44C17.92 12.9778 17.7694 12.507 17.4387 12.135C17.1081 11.7631 16.5866 11.52 16 11.52ZM16 12.8C16.2666 12.8 16.3852 12.877 16.4812 12.985C16.5773 13.0931 16.64 13.2623 16.64 13.44C16.64 13.6178 16.5773 13.787 16.4812 13.895C16.3852 14.0031 16.2666 14.08 16 14.08C15.7333 14.08 15.6148 14.0031 15.5187 13.895C15.4227 13.787 15.36 13.6178 15.36 13.44C15.36 13.2623 15.4227 13.0931 15.5187 12.985C15.6148 12.877 15.7333 12.8 16 12.8ZM16 15.36C22.7543 15.36 28.2162 20.822 28.2162 27.5763V28.16H3.78372V27.5763C3.78372 20.822 9.24568 15.36 16 15.36ZM11.7237 18.1213C11.623 18.1211 11.5236 18.1446 11.4337 18.19C9.33723 19.2117 7.63662 20.9136 6.61497 23.01C6.57416 23.086 6.5491 23.1694 6.54131 23.2552C6.53351 23.3411 6.54315 23.4276 6.56963 23.5097C6.59611 23.5917 6.63889 23.6676 6.69541 23.7327C6.75193 23.7978 6.82101 23.8508 6.89853 23.8886C6.97604 23.9263 7.06037 23.948 7.14648 23.9523C7.23258 23.9567 7.31867 23.9436 7.39959 23.9139C7.48051 23.8841 7.55459 23.8383 7.61737 23.7792C7.68016 23.7202 7.73036 23.649 7.76497 23.57C8.66077 21.7318 10.1567 20.2371 11.995 19.3413C12.127 19.2796 12.234 19.1748 12.2984 19.0441C12.3627 18.9134 12.3806 18.7647 12.3489 18.6224C12.3173 18.4802 12.2381 18.3531 12.1245 18.2619C12.0108 18.1708 11.8694 18.1212 11.7237 18.1213Z" fill="#001325" fill-opacity="0.92"/>
</svg>
