<svg width="32" height="32" viewBox="0 0 32 32" fill="none" xmlns="http://www.w3.org/2000/svg">
<g clip-path="url(#clip0_1735_518)">
<path d="M7.67979 0C6.97979 0 6.39979 0.58 6.39979 1.28V2.56H2.55979C1.87479 2.56 1.27979 3.075 1.27979 3.8125V29.5725C1.27979 29.94 1.49229 30.295 1.74979 30.4775C2.00729 30.6575 2.28729 30.72 2.55979 30.72H29.4398C29.7123 30.72 29.9923 30.6575 30.2498 30.4775C30.5073 30.295 30.7198 29.94 30.7198 29.5725V3.8125C30.7198 3.1425 30.1773 2.56 29.4923 2.56H25.5998V1.28C25.5998 0.58 25.0198 0 24.3198 0H23.0398C22.3398 0 21.7598 0.58 21.7598 1.28V2.56H10.2398V1.28C10.2398 0.58 9.65979 0 8.95979 0H7.67979ZM7.67979 1.28H8.95979V5.12H7.67979V1.28ZM23.0398 1.28H24.3198V5.12H23.0398V1.28ZM2.55979 3.84H6.39979V5.12C6.39979 5.82 6.97979 6.4 7.67979 6.4H8.95979C9.65979 6.4 10.2398 5.82 10.2398 5.12V3.84H21.7598V5.12C21.7598 5.82 22.3398 6.4 23.0398 6.4H24.3198C25.0198 6.4 25.5998 5.82 25.5998 5.12V3.84H29.4398V8.32H2.55979V3.84ZM2.55979 9.6H29.4398V29.44H2.55979V9.6Z" fill="#251000"/>
</g>
<defs>
<clipPath id="clip0_1735_518">
<rect width="32" height="32" fill="white"/>
</clipPath>
</defs>
</svg>
