<svg width="32" height="32" viewBox="0 0 32 32" fill="none" xmlns="http://www.w3.org/2000/svg">
<path d="M7.79758 2.56006C6.78425 2.56006 5.94279 2.9631 5.39883 3.57506C4.85487 4.18702 4.59758 4.97784 4.59758 5.76006C4.59758 6.54228 4.85487 7.3331 5.39883 7.94506C5.94279 8.55702 6.78425 8.96006 7.79758 8.96006C8.81091 8.96006 9.65112 8.55701 10.1951 7.94506C10.739 7.3331 10.9976 6.54228 10.9976 5.76006C10.9976 4.97784 10.739 4.18702 10.1951 3.57506C9.65112 2.9631 8.81091 2.56006 7.79758 2.56006ZM7.79758 3.84006C8.49091 3.84006 8.92946 4.07702 9.23883 4.42506C9.5482 4.7731 9.71758 5.26228 9.71758 5.76006C9.71758 6.25784 9.5482 6.74702 9.23883 7.09506C8.92946 7.4431 8.49091 7.68006 7.79758 7.68006C7.10424 7.68006 6.66445 7.4431 6.35508 7.09506C6.04571 6.74701 5.87758 6.25784 5.87758 5.76006C5.87758 5.26228 6.04571 4.7731 6.35508 4.42506C6.66445 4.07702 7.10424 3.84006 7.79758 3.84006ZM19.3188 7.13006C19.1934 7.13714 19.0728 7.18097 18.9721 7.2561C18.8714 7.33123 18.7951 7.43434 18.7526 7.55256L17.1251 12.0801L13.9001 13.8826L11.6501 11.2388C11.6333 11.219 11.6154 11.2002 11.5963 11.1826C11.1998 10.6943 10.7456 10.3453 10.3676 10.1088C10.1726 9.98683 9.99788 9.89419 9.85758 9.82756C9.71728 9.76092 9.66296 9.7308 9.51508 9.69131C9.51425 9.69089 9.51341 9.69047 9.51258 9.69006C9.07255 9.57398 8.59673 9.53065 8.11883 9.58756C7.64093 9.64447 7.16089 9.80134 6.71508 10.0888C6.71508 10.0892 6.71508 10.0896 6.71508 10.0901C5.17457 11.0838 4.72145 13.1346 5.66633 14.6976L5.66758 14.6988L9.99508 22.2663C9.99752 22.2709 10 22.2755 10.0026 22.2801C10.6441 23.3393 11.8585 23.9183 13.0851 23.7476L21.9413 22.5163L27.1588 26.4226C27.1601 26.4234 27.1613 26.4242 27.1626 26.4251C28.2132 27.1997 29.7428 26.9036 30.4213 25.7613C31.0311 24.7353 30.6692 23.444 29.7488 22.7651L23.8763 18.3751C23.8751 18.3738 23.8738 18.3726 23.8726 18.3713C23.4658 18.0716 22.8995 17.8948 22.2338 17.9551L22.2626 17.9526L15.4438 18.2588L15.0751 17.6788L19.3026 15.2526C19.3149 15.2455 19.327 15.238 19.3388 15.2301C19.5002 15.1226 19.6317 14.9886 19.7488 14.8451L20.7401 15.0451C20.8771 15.0729 21.0195 15.0551 21.1454 14.9944C21.2714 14.9336 21.374 14.8334 21.4376 14.7088L24.0638 9.54756C24.105 9.46663 24.1285 9.37786 24.1327 9.28716C24.137 9.19645 24.1218 9.10589 24.0884 9.02147C24.0549 8.93706 24.0039 8.86073 23.9387 8.79755C23.8734 8.73438 23.7955 8.68581 23.7101 8.65506L19.5713 7.16756C19.4905 7.13823 19.4047 7.12548 19.3188 7.13006ZM19.7401 8.58756L22.5938 9.61381L20.5163 13.6951L20.1901 13.6288C20.1908 13.2624 20.0889 12.8923 19.8726 12.5676C19.5713 12.1152 19.1049 11.8365 18.6038 11.7488L19.7401 8.58756ZM8.73008 10.8476C8.88172 10.8606 9.03399 10.8878 9.18508 10.9276C9.09832 10.9044 9.21117 10.9374 9.30883 10.9838C9.40649 11.0302 9.53968 11.1005 9.68883 11.1938C9.98713 11.3804 10.3459 11.6602 10.6301 12.0201C10.6471 12.0416 10.6655 12.0621 10.6851 12.0813L13.2663 15.1113C13.3622 15.2241 13.4941 15.3002 13.6398 15.3266C13.7854 15.3531 13.9357 15.3282 14.0651 15.2563L17.8776 13.1263C17.8921 13.1181 17.9063 13.1094 17.9201 13.1001C18.2204 12.9 18.6066 12.9777 18.8063 13.2776C19.0061 13.5776 18.9292 13.9627 18.6301 14.1626V14.1638L13.7926 16.9388C13.6761 17.0056 13.3836 17.078 13.1438 17.0538C12.9041 17.0296 12.7565 16.9471 12.6826 16.8288C12.665 16.8011 12.6454 16.7748 12.6238 16.7501L9.75758 13.4276C9.70337 13.3616 9.63653 13.3072 9.56099 13.2675C9.48545 13.2278 9.40272 13.2036 9.31769 13.1964C9.23266 13.1891 9.14703 13.1989 9.06584 13.2252C8.98466 13.2515 8.90956 13.2938 8.84495 13.3496C8.78035 13.4053 8.72755 13.4735 8.68967 13.5499C8.65178 13.6264 8.62957 13.7097 8.62434 13.7949C8.61911 13.8801 8.63097 13.9654 8.65921 14.046C8.68746 14.1265 8.73153 14.2006 8.78883 14.2638L11.6476 17.5776C11.987 18.0608 12.5278 18.2785 13.0151 18.3276C13.3323 18.3595 13.6387 18.3293 13.9263 18.2501C13.9371 18.2728 13.9492 18.295 13.9626 18.3163L14.5638 19.2588C14.6243 19.3536 14.7088 19.4308 14.8086 19.4826C14.9085 19.5344 15.0202 19.5589 15.1326 19.5538L22.3201 19.2313C22.3297 19.2311 22.3393 19.2307 22.3488 19.2301C22.6879 19.1994 23.015 19.3298 23.1138 19.4026L28.9863 23.7938C28.9872 23.7946 28.988 23.7955 28.9888 23.7963C29.415 24.1106 29.5666 24.6949 29.3213 25.1076C29.0168 25.6203 28.3824 25.7341 27.9226 25.3951L22.4976 21.3338C22.3626 21.2329 22.1932 21.1894 22.0263 21.2126L12.9088 22.4801C12.1866 22.5806 11.4777 22.2431 11.0988 21.6188L11.0976 21.6176L6.77008 14.0501C6.76763 14.0454 6.76513 14.0409 6.76258 14.0363C6.16235 13.0445 6.43972 11.7902 7.40883 11.1651C7.82367 10.8976 8.27516 10.8084 8.73008 10.8476ZM2.88883 13.0626C2.77774 13.0663 2.66955 13.099 2.57491 13.1573C2.48027 13.2156 2.40244 13.2975 2.34908 13.395C2.29572 13.4925 2.26868 13.6022 2.2706 13.7134C2.27253 13.8245 2.30337 13.9332 2.36008 14.0288L9.10258 25.7963L6.64633 29.0551C6.59436 29.1221 6.55624 29.1988 6.53417 29.2807C6.51209 29.3625 6.50652 29.448 6.51776 29.5321C6.529 29.6161 6.55683 29.6971 6.59964 29.7703C6.64245 29.8435 6.69939 29.9075 6.76714 29.9585C6.83489 30.0096 6.9121 30.0466 6.99429 30.0675C7.07648 30.0884 7.162 30.0928 7.2459 30.0804C7.3298 30.068 7.41039 30.039 7.48299 29.9952C7.5556 29.9513 7.61877 29.8935 7.66883 29.8251L10.0476 26.6688C10.053 26.6685 10.0584 26.668 10.0638 26.6676L21.0776 25.1538L27.2451 29.9451C27.311 30.0005 27.3874 30.042 27.4698 30.0672C27.5521 30.0924 27.6387 30.1007 27.7244 30.0916C27.81 30.0825 27.8929 30.0563 27.9682 30.0144C28.0434 29.9725 28.1095 29.9159 28.1623 29.8479C28.2151 29.7799 28.2537 29.7019 28.2757 29.6187C28.2978 29.5354 28.3027 29.4486 28.2904 29.3633C28.278 29.2781 28.2486 29.1963 28.2039 29.1227C28.1592 29.0491 28.1 28.9853 28.0301 28.9351L21.6501 23.9776C21.5827 23.9252 21.5055 23.8868 21.4231 23.8647C21.3407 23.8426 21.2546 23.8372 21.1701 23.8488L10.3401 25.3376C10.3253 25.3235 10.3099 25.3101 10.2938 25.2976L3.47133 13.3926C3.41416 13.2891 3.32948 13.2036 3.22666 13.1453C3.12385 13.0871 3.00692 13.0584 2.88883 13.0626Z" fill="#251000"/>
</svg>
