<svg width="32" height="32" viewBox="0 0 32 32" fill="none" xmlns="http://www.w3.org/2000/svg">
<g clip-path="url(#clip0_1664_462)">
<path d="M0.624961 1.27499C0.352461 1.27499 0.112461 1.44999 0.0249609 1.70999C-0.0625391 1.96749 0.0249609 2.25249 0.239961 2.41999L10.88 10.9325V29.44H0.639961C0.409961 29.4375 0.194961 29.5575 0.0774611 29.7575C-0.0375391 29.9575 -0.0375391 30.2025 0.0774611 30.4025C0.194961 30.6025 0.409961 30.7225 0.639961 30.72H11.52C11.8725 30.72 12.16 30.4325 12.16 30.08V11.9575L13.04 12.66C13.315 12.88 13.72 12.8375 13.94 12.56C14.16 12.285 14.1175 11.88 13.84 11.66L11.9825 10.175C11.9425 10.1325 11.8975 10.095 11.8475 10.065L9.59996 8.26749V3.83999C9.59996 3.48749 9.31246 3.19999 8.95996 3.19999H6.39996C6.04746 3.19999 5.75996 3.48749 5.75996 3.83999V5.19499L1.03996 1.41999C0.922461 1.32499 0.777461 1.27249 0.624961 1.27499ZM7.03996 4.47999H8.31996V7.24249L7.03996 6.21999V4.47999ZM26.56 6.39999C25.6525 6.39999 24.8925 6.76249 24.4 7.31499C23.91 7.86749 23.68 8.57749 23.68 9.27999C23.68 9.98249 23.91 10.6925 24.4 11.245C24.8925 11.7975 25.6525 12.16 26.56 12.16C27.4675 12.16 28.2275 11.7975 28.72 11.245C29.21 10.6925 29.44 9.98249 29.44 9.27999C29.44 8.57749 29.21 7.86749 28.72 7.31499C28.2275 6.76249 27.4675 6.39999 26.56 6.39999ZM26.56 7.67999C27.1475 7.67999 27.505 7.87749 27.76 8.16499C28.0175 8.45249 28.16 8.86249 28.16 9.27999C28.16 9.69749 28.0175 10.1075 27.76 10.395C27.505 10.6825 27.1475 10.88 26.56 10.88C25.9725 10.88 25.615 10.6825 25.36 10.395C25.1025 10.1075 24.96 9.69749 24.96 9.27999C24.96 8.86249 25.1025 8.45249 25.36 8.16499C25.615 7.87749 25.9725 7.67999 26.56 7.67999ZM24.365 12.805C24.0825 12.8025 23.8025 12.8475 23.5425 12.93L23.5825 12.92L18.7325 14.1375C18.305 14.245 17.93 14.4975 17.665 14.8475C17.665 14.8475 17.665 14.8475 17.6625 14.8475L15.7425 17.4075C15.1125 18.25 15.285 19.465 16.1275 20.0975C16.47 20.3525 16.8775 20.48 17.28 20.48C17.8625 20.48 18.4425 20.21 18.8175 19.7125L20.3275 17.6975L20.75 17.5925L20.0025 19.58C19.9275 19.7825 19.885 19.9875 19.8625 20.1925L19.8575 20.19L19.2975 24.71L16.5625 27.4425C15.8175 28.1875 15.8175 29.4125 16.5625 30.1575C16.935 30.53 17.43 30.72 17.92 30.72C18.41 30.72 18.905 30.53 19.2775 30.1575L22.465 26.97C22.7175 26.7225 22.9025 26.4025 22.99 26.0425L23.31 24.76C23.475 24.9125 23.835 25.2425 23.88 25.28L25.035 29.3275C25.2725 30.165 26.04 30.72 26.88 30.72C27.0525 30.72 27.2325 30.695 27.4075 30.645C28.42 30.355 29.015 29.285 28.7275 28.2725L27.4475 23.7925C27.3725 23.535 27.2475 23.295 27.0775 23.09C27.075 23.09 27.075 23.09 27.075 23.09L25.06 20.6725L25.7425 18.86L26.16 19.2775C26.225 19.34 26.2925 19.4 26.3675 19.4575L28.9275 21.3775C29.27 21.635 29.68 21.76 30.08 21.76C30.6625 21.76 31.2425 21.49 31.6175 20.9925C32.2475 20.15 32.075 18.935 31.2325 18.3025L28.7925 16.475L26.22 13.6525L26.2125 13.66C25.9475 13.36 25.6175 13.1125 25.22 12.9625C24.9375 12.8575 24.6475 12.8075 24.365 12.805ZM24.35 14.0825C24.49 14.085 24.63 14.11 24.77 14.16C24.9725 14.2375 25.1425 14.3625 25.2775 14.5125H25.275L25.32 14.56C25.5925 14.9 25.685 15.3675 25.52 15.81L23.7325 20.5725C23.6525 20.79 23.6925 21.03 23.84 21.2075L26.0925 23.91H26.09C26.1475 23.98 26.19 24.06 26.215 24.1425C26.215 24.145 26.215 24.145 26.215 24.145L27.495 28.625C27.595 28.9725 27.4025 29.3175 27.0575 29.415C27.055 29.415 27.055 29.415 27.0525 29.415C26.995 29.4325 26.9375 29.44 26.88 29.44C26.6025 29.44 26.3475 29.2625 26.265 28.9775L25.06 24.7575C25.0275 24.6425 24.965 24.54 24.8775 24.46C24.8775 24.46 24.015 23.6725 23.1575 22.8875C22.7275 22.495 22.295 22.1025 21.9725 21.8075C21.8125 21.66 21.6775 21.5375 21.5825 21.45C21.5375 21.4075 21.5 21.375 21.4775 21.35C21.4725 21.35 21.4725 21.3475 21.47 21.3475C21.1475 21 21.025 20.5025 21.2025 20.03L22.3775 16.9C22.46 16.6775 22.4125 16.425 22.255 16.2475C22.0975 16.07 21.8525 15.995 21.62 16.0525L19.7975 16.51C19.655 16.5475 19.5275 16.63 19.44 16.7475L17.7925 18.9425C17.6625 19.115 17.475 19.2 17.28 19.2C17.145 19.2 17.015 19.16 16.8975 19.0725C16.6075 18.8575 16.55 18.465 16.7675 18.1775L18.6875 15.6175C18.7775 15.4975 18.9025 15.415 19.0425 15.38C19.045 15.38 19.045 15.38 19.0475 15.38L23.8925 14.16C23.9075 14.1575 23.92 14.1525 23.9325 14.15C24.07 14.105 24.21 14.0825 24.35 14.0825ZM26.75 16.1325L27.8875 17.3825C27.915 17.4125 27.945 17.4375 27.9775 17.4625L30.4625 19.3275C30.7525 19.545 30.8075 19.935 30.5925 20.2225C30.465 20.395 30.2725 20.48 30.08 20.48C29.945 20.48 29.8125 20.44 29.695 20.3525L27.135 18.4325C27.1125 18.415 27.09 18.395 27.0675 18.3725L26.2375 17.54L26.7175 16.26C26.7325 16.2175 26.7375 16.175 26.75 16.1325ZM2.55996 16.64C2.20746 16.64 1.91996 16.9275 1.91996 17.28V24.96C1.91996 25.3125 2.20746 25.6 2.55996 25.6H7.67996C8.03246 25.6 8.31996 25.3125 8.31996 24.96V17.28C8.31996 16.9275 8.03246 16.64 7.67996 16.64H2.55996ZM3.19996 17.92H7.03996V24.32H3.19996V17.92ZM20.8575 22.52C20.935 22.5925 21.005 22.655 21.11 22.75C21.4175 23.0325 21.825 23.4075 22.235 23.78L21.745 25.74C21.745 25.7425 21.7425 25.745 21.7425 25.7475C21.715 25.87 21.6525 25.9725 21.57 26.0575C21.5675 26.0575 21.565 26.06 21.5625 26.06L18.37 29.2525C18.245 29.38 18.085 29.44 17.92 29.44C17.755 29.44 17.595 29.38 17.47 29.2525C17.4675 29.2525 17.4675 29.2525 17.4675 29.2525C17.2125 28.9975 17.2125 28.6025 17.4675 28.3475L20.3575 25.4575C20.4575 25.3575 20.5225 25.225 20.54 25.0825L20.8575 22.52Z" fill="#251000"/>
</g>
<defs>
<clipPath id="clip0_1664_462">
<rect width="32" height="32" fill="white"/>
</clipPath>
</defs>
</svg>
