<svg width="32" height="32" viewBox="0 0 32 32" fill="none" xmlns="http://www.w3.org/2000/svg">
<path d="M12.8001 1.28003V3.20003C12.8001 4.25253 13.6676 5.12003 14.7201 5.12003H15.3601V10.26C13.9826 10.3475 12.6776 10.7125 11.5026 11.29C11.1851 11.445 11.0526 11.8275 11.2076 12.145C11.3651 12.465 11.7476 12.595 12.0651 12.44C12.6801 12.1375 13.3351 11.905 14.0176 11.75C13.6551 14.0025 13.4401 17.075 13.4401 20.48C13.4401 20.905 13.4551 21.3 13.4626 21.7125C12.5726 21.6825 11.7201 21.6375 10.9176 21.5775C10.9076 21.3675 10.8951 21.16 10.8901 20.95C10.8901 20.775 10.8201 20.61 10.6951 20.49C10.5701 20.37 10.4026 20.3075 10.2301 20.3125C9.87762 20.325 9.60012 20.62 9.61012 20.9725C9.61512 21.1375 9.62512 21.295 9.63012 21.4575C8.67512 21.3625 7.81012 21.25 7.07262 21.12C7.05762 20.9075 7.04012 20.695 7.04012 20.48C7.04012 20.3975 7.05262 20.28 7.06012 20.12C7.06762 19.9475 7.00762 19.78 6.89012 19.6525C6.77262 19.525 6.60762 19.45 6.43512 19.4475C6.08262 19.4375 5.79012 19.7175 5.78012 20.07C5.77512 20.1675 5.76012 20.305 5.76012 20.48C5.76012 21.975 6.09012 23.3925 6.66762 24.6725C6.68762 24.7375 6.71762 24.7975 6.75512 24.8525C7.77262 26.9975 9.50762 28.7275 11.6551 29.74C11.6901 29.76 11.7251 29.7775 11.7626 29.79C13.0551 30.3825 14.4876 30.72 16.0001 30.72C17.4301 30.72 18.7926 30.425 20.0276 29.895C20.2451 29.81 20.3976 29.6125 20.4276 29.3825C20.4576 29.15 20.3601 28.9225 20.1726 28.7825C19.9826 28.645 19.7351 28.62 19.5226 28.72C19.0326 28.93 18.5151 29.0925 17.9826 29.2125C18.0976 28.4925 18.1901 27.6475 18.2726 26.7775C18.8551 26.725 19.4251 26.655 19.9776 26.5675C20.2076 26.535 20.4001 26.3825 20.4851 26.165C20.5701 25.95 20.5301 25.705 20.3826 25.5275C20.2351 25.3475 20.0026 25.2625 19.7751 25.3025C19.3251 25.375 18.8576 25.4325 18.3851 25.48C18.4401 24.6875 18.4876 23.8625 18.5151 22.995C19.5926 22.96 20.6176 22.9025 21.5726 22.825C21.6976 22.85 21.8276 22.8375 21.9426 22.7875C22.9526 22.6975 23.9051 22.595 24.7226 22.465C24.6326 22.85 24.5276 23.2275 24.3926 23.5925C24.3076 23.8075 24.3451 24.0525 24.4926 24.2325C24.6401 24.4125 24.8726 24.4975 25.1001 24.4575C25.3276 24.4175 25.5176 24.2575 25.5926 24.0375C26.0026 22.9325 26.2401 21.735 26.2401 20.48C26.2401 16.4025 23.8401 12.885 20.3801 11.24C20.3251 11.1975 20.2601 11.1675 20.1926 11.1475C19.0976 10.6525 17.9001 10.35 16.6401 10.2725V5.12003H17.2801C18.3326 5.12003 19.2001 4.25253 19.2001 3.20003V1.28003H12.8001ZM14.0801 2.56003H17.9201V3.20003C17.9201 3.56253 17.6426 3.84003 17.2801 3.84003H14.7201C14.3576 3.84003 14.0801 3.56253 14.0801 3.20003V2.56003ZM5.12012 8.32003C5.12012 8.32003 6.76012 10.5575 7.48012 11.4875C6.76012 12.4175 5.12012 14.655 5.12012 14.655C5.12012 14.655 7.35762 13.015 8.28762 12.2975C9.21762 13.015 11.4576 14.655 11.4576 14.655C11.4576 14.655 9.81512 12.4175 9.09762 11.4875C9.81512 10.5575 11.4576 8.32003 11.4576 8.32003C11.4576 8.32003 9.21762 9.96003 8.28762 10.6775C7.35762 9.96003 5.12012 8.32003 5.12012 8.32003ZM16.0001 11.52C16.2151 11.52 16.4276 11.5375 16.6401 11.5525C16.7701 12.29 16.8801 13.15 16.9776 14.1025C16.6526 14.0925 16.3301 14.08 16.0001 14.08C15.6701 14.08 15.3451 14.0875 15.0226 14.1C15.1176 13.15 15.2301 12.2925 15.3601 11.5575C15.5726 11.5425 15.7826 11.52 16.0001 11.52ZM17.9826 11.7475C18.5151 11.865 19.0301 12.0275 19.5201 12.2375C19.8276 12.8975 20.0976 13.64 20.3276 14.4525C19.6651 14.335 18.9801 14.245 18.2726 14.1825C18.1901 13.31 18.0976 12.4675 17.9826 11.7475ZM21.3101 13.27C22.0351 13.805 22.6751 14.445 23.2101 15.17C22.7401 15.01 22.2451 14.8725 21.7326 14.7475C21.6076 14.235 21.4676 13.74 21.3101 13.27ZM16.0001 15.36C16.3701 15.36 16.7351 15.37 17.0976 15.3875C17.1551 16.1925 17.2026 17.0475 17.2326 17.9425C16.8201 17.935 16.4251 17.92 16.0001 17.92C15.5751 17.92 15.1776 17.9325 14.7676 17.94C14.7976 17.045 14.8451 16.1925 14.9026 15.3875C15.2651 15.37 15.6301 15.36 16.0001 15.36ZM18.3851 15.4775C19.1776 15.5525 19.9426 15.6675 20.6651 15.815C20.8126 16.5375 20.9251 17.3 21.0026 18.0925C20.2126 18.0375 19.3851 17.995 18.5151 17.9675C18.4876 17.0975 18.4426 16.27 18.3851 15.4775ZM8.32012 16C8.32012 16 9.02262 17.24 9.47012 17.9475C9.02262 18.635 8.32012 19.84 8.32012 19.84C8.32012 19.84 9.54262 19.155 10.2401 18.7175C10.9376 19.155 12.1601 19.84 12.1601 19.84C12.1601 19.84 11.4576 18.635 11.0101 17.9475C11.4576 17.24 12.1601 16 12.1601 16C12.1601 16 10.9376 16.72 10.2401 17.1775C9.54262 16.72 8.32012 16 8.32012 16ZM22.0276 16.15C22.8376 16.38 23.5826 16.65 24.2426 16.9575C24.4526 17.45 24.6151 17.965 24.7326 18.4975C24.0126 18.3825 23.1701 18.29 22.2976 18.2075C22.2351 17.4975 22.1426 16.8125 22.0276 16.15ZM16.0001 19.2C16.4326 19.2 16.8351 19.2175 17.2576 19.2225C17.2626 19.645 17.2801 20.0475 17.2801 20.48C17.2801 20.9125 17.2626 21.315 17.2576 21.7375C16.8351 21.7425 16.4326 21.76 16.0001 21.76C15.5676 21.76 15.1651 21.7425 14.7426 21.7375C14.7376 21.315 14.7201 20.9125 14.7201 20.48C14.7201 20.045 14.7376 19.6425 14.7426 19.22C15.1626 19.2125 15.5701 19.2 16.0001 19.2ZM18.5376 19.2475C19.4326 19.2775 20.2876 19.3225 21.0926 19.3825C21.1101 19.745 21.1201 20.11 21.1201 20.48C21.1201 20.85 21.0976 21.2125 21.0801 21.5775C20.2776 21.635 19.4276 21.6825 18.5376 21.7125C18.5451 21.3 18.5601 20.905 18.5601 20.48C18.5601 20.055 18.5451 19.66 18.5376 19.2475ZM22.3776 19.5025C23.3301 19.5975 24.1901 19.71 24.9276 19.84C24.9426 20.0525 24.9601 20.265 24.9601 20.48C24.9601 20.695 24.9451 20.9075 24.9301 21.12C24.1926 21.25 23.3326 21.36 22.3776 21.4575C22.3901 21.135 22.4001 20.81 22.4001 20.48C22.4001 20.15 22.3876 19.825 22.3776 19.5025ZM7.26762 22.46C7.99012 22.5775 8.83512 22.6675 9.71012 22.7525C9.77262 23.46 9.86012 24.1475 9.97512 24.81C9.16262 24.58 8.41762 24.3075 7.75762 24C7.54762 23.51 7.38512 22.9925 7.26762 22.46ZM11.0076 22.865C11.7976 22.92 12.6201 22.965 13.4851 22.9925C13.5126 23.8625 13.5576 24.69 13.6151 25.4825C12.8251 25.4075 12.0651 25.2925 11.3426 25.1475C11.1976 24.4225 11.0851 23.6575 11.0076 22.865ZM14.7676 23.0175C15.1801 23.025 15.5751 23.04 16.0001 23.04C16.4251 23.04 16.8201 23.025 17.2326 23.0175C17.2026 23.9125 17.1551 24.7675 17.0976 25.5725C16.7351 25.59 16.3701 25.6 16.0001 25.6C15.6301 25.6 15.2651 25.59 14.9026 25.5725C14.8451 24.7675 14.7976 23.9125 14.7676 23.0175ZM21.1201 24.385C21.1201 24.385 22.7601 26.6225 23.4801 27.5525C22.7601 28.4825 21.1201 30.72 21.1201 30.72C21.1201 30.72 23.3576 29.08 24.2876 28.3625C25.2176 29.08 27.4576 30.72 27.4576 30.72C27.4576 30.72 25.8151 28.4825 25.0976 27.5525C25.8151 26.6225 27.4576 24.385 27.4576 24.385C27.4576 24.385 25.2176 26.025 24.2876 26.7425C23.3576 26.025 21.1201 24.385 21.1201 24.385ZM8.79012 25.79C9.26012 25.9475 9.75762 26.0875 10.2701 26.2125C10.3951 26.7225 10.5301 27.22 10.6876 27.6875C9.96262 27.1525 9.32512 26.515 8.79012 25.79ZM11.6701 26.5075C12.3326 26.6225 13.0176 26.715 13.7276 26.7775C13.8101 27.65 13.9026 28.4925 14.0176 29.2125C13.4851 29.095 12.9701 28.9325 12.4801 28.7225C12.1726 28.0625 11.8976 27.32 11.6701 26.5075ZM15.0226 26.8575C15.3476 26.8675 15.6701 26.88 16.0001 26.88C16.3301 26.88 16.6551 26.8725 16.9776 26.86C16.8801 27.8125 16.7701 28.6725 16.6401 29.4075C16.4276 29.4225 16.2151 29.44 16.0001 29.44C15.7851 29.44 15.5726 29.4225 15.3601 29.4075C15.2301 28.67 15.1201 27.81 15.0226 26.8575Z" fill="#251000"/>
</svg>
