<svg width="97" height="64" viewBox="0 0 97 64" fill="none" xmlns="http://www.w3.org/2000/svg">
<g clip-path="url(#clip0_196_2180)">
<path d="M23.4473 2.56006C20.9773 2.56006 18.9673 4.57006 18.9673 7.04006C18.9673 9.51006 20.9773 11.5201 23.4473 11.5201C24.2123 11.5201 24.9373 11.3001 25.5673 10.9601L28.5273 13.9201C27.6523 14.8801 26.8573 15.8801 26.1273 16.9601C25.6373 17.6851 25.1873 18.4301 24.7673 19.2001C24.3523 19.9601 23.9873 20.7151 23.6473 21.5201C23.4723 21.9351 23.3223 22.3351 23.1673 22.7601C23.0173 23.1701 22.8573 23.5801 22.7273 24.0001C22.3273 25.2751 22.0523 26.5751 21.8473 27.9201C21.7773 28.3651 21.6923 28.7901 21.6473 29.2401C21.6473 29.2551 21.6473 29.2651 21.6473 29.2801C21.6023 29.7201 21.5923 30.1551 21.5673 30.6001C21.5423 31.0701 21.5273 31.5251 21.5273 32.0001C21.5273 35.7051 22.2873 39.2251 23.6473 42.4401C23.6523 42.4501 23.6423 42.4701 23.6473 42.4801C24.3273 44.0751 25.1673 45.6201 26.1273 47.0401C27.0923 48.4701 28.1923 49.7851 29.4073 51.0001C30.0173 51.6101 30.6623 52.2101 31.3273 52.7601C31.9923 53.3101 32.6523 53.7951 33.3673 54.2801C34.0923 54.7701 34.8373 55.2201 35.6073 55.6401C36.3673 56.0551 37.1223 56.4201 37.9273 56.7601C41.1523 58.1301 44.6873 58.8801 48.4073 58.8801C50.2123 58.8801 51.9673 58.6651 53.6873 58.3201C54.0973 58.2401 54.5223 58.1801 54.9273 58.0801C56.6273 57.6551 58.2773 57.0601 59.8473 56.3201C60.2273 56.1401 60.5973 55.9551 60.9673 55.7601C61.6723 55.3851 62.3373 54.9951 63.0073 54.5601C63.5123 54.2301 64.0073 53.8801 64.4873 53.5201C64.5123 53.5001 64.5423 53.5001 64.5673 53.4801L62.7673 51.6401C62.7373 51.6601 62.7173 51.7001 62.6873 51.7201L60.2873 49.3201C58.4873 51.2251 56.4473 52.8801 54.1673 54.2001C55.0323 54.4501 55.9023 54.6401 56.8073 54.8001C55.1373 55.4151 53.4023 55.8451 51.6073 56.0801C41.3523 52.3401 34.3273 42.8801 34.3273 32.0001C34.3273 23.0351 39.1173 15.0701 46.5273 10.4401C46.5273 10.4401 48.5273 9.10006 51.2473 8.00006C50.7573 8.05506 50.1673 8.12506 50.1273 8.12006C38.0723 9.70506 29.0073 20.0251 29.0073 32.2001C29.0073 44.3201 37.9973 54.5851 49.9673 56.2401C49.4473 56.2751 48.9323 56.3201 48.4073 56.3201C44.2673 56.3201 40.3423 55.3101 36.9273 53.4801C30.5273 48.5401 26.4473 40.7751 26.4473 32.2001C26.4473 22.9551 31.1673 14.6851 38.4473 9.84006C41.4923 8.46506 44.8523 7.68006 48.4073 7.68006C51.3473 7.68006 54.1573 8.23506 56.7673 9.20006C55.1273 9.49006 53.5423 9.94506 52.0473 10.5201C59.6173 11.5551 66.2023 15.7451 70.4073 21.7201C71.8823 24.8451 72.7273 28.3201 72.7273 32.0001C72.7273 32.8601 72.6923 33.7201 72.6073 34.5601C71.3223 22.3501 60.9523 12.8001 48.4073 12.8001C48.1023 12.8001 47.7873 12.8301 47.4873 12.8401C45.2023 14.3251 43.2323 16.1701 41.6073 18.2801C43.0073 18.0601 44.4173 17.9201 45.8473 17.9201C58.3423 17.9201 68.9923 26.5451 71.9273 38.2801C71.4923 39.9101 70.9073 41.5101 70.1273 43.0401C69.8873 39.6801 68.9123 36.5201 67.4473 33.6801C67.1223 36.9051 66.2273 40.0001 64.7673 42.9201L68.0873 46.2401C68.0823 46.2501 68.0923 46.2701 68.0873 46.2801L69.9273 48.0801C70.8073 46.9001 71.5973 45.6601 72.2873 44.3201C72.3823 44.1351 72.4773 43.9451 72.5673 43.7601C73.1723 42.5101 73.6823 41.2101 74.0873 39.8801C74.1823 39.5701 74.2823 39.2751 74.3673 38.9601C74.7523 37.5101 75.0273 36.0201 75.1673 34.5201C75.1673 34.5051 75.1673 34.4951 75.1673 34.4801C75.1773 34.3851 75.1973 34.2951 75.2073 34.2001C75.2223 34.0001 75.2323 33.8051 75.2473 33.6001C75.2523 33.4951 75.2423 33.3851 75.2473 33.2801C75.2673 32.8601 75.2873 32.4251 75.2873 32.0001C75.2873 31.2351 75.2673 30.4701 75.2073 29.7201C75.2023 29.6801 75.2123 29.6401 75.2073 29.6001C75.1573 29.0251 75.0523 28.4851 74.9673 27.9201C74.9473 27.7851 74.9123 27.6551 74.8873 27.5201C74.7673 26.7951 74.6273 26.0651 74.4473 25.3601C74.4423 25.3351 74.4523 25.3051 74.4473 25.2801C74.2673 24.5851 74.0373 23.9101 73.8073 23.2401C73.5723 22.5601 73.2923 21.8951 73.0073 21.2401C72.4273 19.9101 71.7473 18.6451 70.9673 17.4401C70.5723 16.8301 70.1673 16.2551 69.7273 15.6801C69.2723 15.0851 68.7923 14.5151 68.2873 13.9601L71.2473 10.9601C71.8773 11.3001 72.6023 11.5201 73.3673 11.5201C75.8373 11.5201 77.8473 9.51006 77.8473 7.04006C77.8473 4.57006 75.8373 2.56006 73.3673 2.56006C70.8973 2.56006 68.8873 4.57006 68.8873 7.04006C68.8873 7.80506 69.1073 8.53006 69.4473 9.16006L66.4473 12.1201C66.3423 12.0251 66.2323 11.9351 66.1273 11.8401C65.7873 11.5401 65.4423 11.2451 65.0873 10.9601C64.7323 10.6801 64.3723 10.4251 64.0073 10.1601C63.6373 9.89506 63.2673 9.64506 62.8873 9.40006C62.5073 9.15506 62.1223 8.90506 61.7273 8.68006C61.3323 8.45506 60.9323 8.24506 60.5273 8.04006C60.1223 7.83506 59.7023 7.62506 59.2873 7.44006C58.8773 7.26006 58.4673 7.08006 58.0473 6.92006C57.9173 6.87006 57.7773 6.81006 57.6473 6.76006C57.3423 6.65006 57.0373 6.54006 56.7273 6.44006C56.6173 6.40506 56.5173 6.35506 56.4073 6.32006C56.0773 6.22006 55.7423 6.13006 55.4073 6.04006C55.3123 6.01506 55.2223 5.98506 55.1273 5.96006C54.7773 5.87006 54.4073 5.79506 54.0473 5.72006C53.9673 5.70506 53.8873 5.69506 53.8073 5.68006C53.6623 5.65006 53.5123 5.62506 53.3673 5.60006C52.6773 5.47006 51.9923 5.35506 51.2873 5.28006C50.8323 5.23006 50.3873 5.18506 49.9273 5.16006C49.9023 5.16006 49.8723 5.16006 49.8473 5.16006C49.3773 5.13506 48.8873 5.12006 48.4073 5.12006C47.9423 5.12006 47.4623 5.13506 47.0073 5.16006C46.0923 5.20506 45.2173 5.30506 44.3273 5.44006C42.5473 5.71006 40.8123 6.15506 39.1673 6.76006C38.7573 6.91006 38.3273 7.07006 37.9273 7.24006C37.1373 7.57506 36.3573 7.95006 35.6073 8.36006C33.6923 9.40006 31.9223 10.6651 30.3273 12.1201L27.3673 9.16006C27.7073 8.53006 27.9273 7.80506 27.9273 7.04006C27.9273 4.57006 25.9173 2.56006 23.4473 2.56006ZM45.8473 20.4801C43.7373 20.4801 41.6623 20.7501 39.6473 21.2801C38.4123 23.5501 37.5623 26.0651 37.1673 28.6801C39.7723 25.2101 43.1773 22.4251 47.0873 20.5601C46.6773 20.5401 46.2623 20.4801 45.8473 20.4801ZM52.2473 21.3601C45.6323 23.1651 40.0873 27.6701 36.9673 33.8001C37.1573 36.1551 37.7323 38.4051 38.6073 40.5201C41.6223 32.4751 48.4123 26.2601 56.7673 24.0001C56.6873 23.6551 56.5823 23.3001 56.4873 22.9601C55.1373 22.3001 53.7223 21.7601 52.2473 21.3601ZM59.4873 24.7201C59.7623 26.2751 59.9273 27.8451 59.9273 29.4401C59.9273 33.7801 58.9073 37.9251 56.9273 41.7601C54.8723 45.7351 51.9173 49.1301 48.2473 51.6401C49.0923 52.1501 49.9673 52.6301 50.8873 53.0401C55.8073 50.7751 59.8723 46.9101 62.3673 42.0801C64.1573 38.6151 65.0473 34.8501 65.0473 30.9201C65.0473 30.5701 65.0223 30.2251 65.0073 29.8801C63.4423 27.8801 61.5873 26.1501 59.4873 24.7201ZM57.1673 26.5201C48.9223 28.8401 42.4173 35.4701 40.2473 43.8001C41.0673 45.1251 42.0123 46.3351 43.0873 47.4801C45.2223 40.1801 50.4023 34.1001 57.3273 30.8001C57.3523 30.3551 57.3673 29.8901 57.3673 29.4401C57.3673 28.4551 57.2823 27.4901 57.1673 26.5201ZM56.9673 33.8401C51.0523 37.1701 46.7623 42.8401 45.2073 49.4801C45.4423 49.6751 45.6873 49.8951 45.9273 50.0801C49.6373 47.7601 52.6723 44.5001 54.6873 40.6001C55.7973 38.4551 56.5423 36.1801 56.9673 33.8401ZM62.5673 44.3601L60.7673 46.1601L61.9673 47.3601L66.4473 51.8801L68.2873 53.6801L72.2073 57.6001L76.5673 60.1601L74.0073 55.8001L68.2873 50.0801V50.0401L66.4873 48.2801L62.5673 44.3601ZM26.7273 51.8801L22.8073 55.8001L20.2473 60.1601L24.6073 57.6001L28.5273 53.6801C27.8973 53.1051 27.3023 52.5101 26.7273 51.8801Z" fill="#EC5E28"/>
<path d="M23.4473 2.56006C20.9873 2.56006 18.9673 4.58006 18.9673 7.04006C18.9673 9.50006 20.9873 11.5201 23.4473 11.5201C24.2223 11.5201 24.9273 11.3101 25.5673 10.9601L28.5673 13.9601C24.2223 18.7351 21.5273 25.0451 21.5273 32.0001C21.5273 38.9551 24.2223 45.2651 28.5673 50.0401L22.8073 55.8001L20.2473 60.1601L24.6073 57.6001L30.3273 51.8801C35.1073 56.2351 41.4473 58.8801 48.4073 58.8801C49.4823 58.8801 50.5573 58.8051 51.6073 58.6801L51.7673 58.6401C52.0223 58.6101 52.2573 58.5901 52.4473 58.5601C56.8973 57.8851 61.0423 56.1351 64.5673 53.4801L62.7673 51.6401C60.9523 52.9701 58.9273 54.0601 56.8073 54.8401C55.8173 54.6651 54.8673 54.4001 53.9273 54.1201C57.0023 52.3751 59.7223 50.0551 61.8873 47.2801L72.2073 57.6001L76.5673 60.1601L74.0073 55.8001L68.2873 50.0801C69.8373 48.3701 71.1923 46.4401 72.2873 44.3201C74.2373 40.5451 75.2873 36.2801 75.2873 32.0001C75.2873 25.8601 73.2023 20.2101 69.7273 15.6801L67.8873 17.5201C70.5273 21.0651 72.2573 25.3501 72.6473 30.0001C71.0673 25.2101 68.1823 21.0151 64.4073 17.8401L71.2473 10.9601C71.8873 11.3101 72.5923 11.5201 73.3673 11.5201C75.8273 11.5201 77.8473 9.50006 77.8473 7.04006C77.8473 4.58006 75.8273 2.56006 73.3673 2.56006C70.9073 2.56006 68.8873 4.58006 68.8873 7.04006C68.8873 7.81506 69.0973 8.52006 69.4473 9.16006L66.4473 12.1201C62.6173 8.64006 57.7923 6.25506 52.4473 5.44006C52.2623 5.41006 52.0323 5.39006 51.7673 5.36006L51.6473 5.32006C50.5873 5.19006 49.5023 5.12006 48.4073 5.12006C41.4573 5.12006 35.1423 7.81506 30.3673 12.1601L27.3673 9.16006C27.7173 8.52006 27.9273 7.81506 27.9273 7.04006C27.9273 4.58006 25.9073 2.56006 23.4473 2.56006ZM23.4473 5.12006C24.5223 5.12006 25.3673 5.96506 25.3673 7.04006C25.3673 8.11506 24.5223 8.96006 23.4473 8.96006C22.3723 8.96006 21.5273 8.11506 21.5273 7.04006C21.5273 5.96506 22.3723 5.12006 23.4473 5.12006ZM73.3673 5.12006C74.4423 5.12006 75.2873 5.96506 75.2873 7.04006C75.2873 8.11506 74.4423 8.96006 73.3673 8.96006C72.2923 8.96006 71.4473 8.11506 71.4473 7.04006C71.4473 5.96506 72.2923 5.12006 73.3673 5.12006ZM51.6073 7.92006C41.5273 11.6251 34.3273 20.9901 34.3273 32.0001C34.3273 43.0201 41.5473 52.3851 51.6473 56.0801C39.7073 54.5301 30.4873 44.3701 30.4873 32.0001C30.4873 19.6401 39.6873 9.49006 51.6073 7.92006ZM41.4073 8.72006C33.3523 13.3551 27.9273 22.0451 27.9273 32.0001C27.9273 42.0001 33.4123 50.7001 41.5273 55.3201C31.4573 52.3451 24.0873 43.0251 24.0873 32.0001C24.0873 21.0151 31.3923 11.7301 41.4073 8.72006ZM56.7673 9.20006C59.6873 10.2801 62.3323 11.9151 64.6073 13.9601L62.2873 16.2801C58.6073 13.7501 54.2973 12.0701 49.6073 11.6401C51.8123 10.4951 54.2123 9.65506 56.7673 9.20006ZM47.1273 14.0801C59.8973 14.0801 70.3473 23.8951 71.3673 36.4001C67.8323 25.6801 57.7423 17.9201 45.8473 17.9201C44.4073 17.9201 42.9923 18.0601 41.6073 18.2801C42.7823 16.7501 44.1223 15.3701 45.6473 14.1601C46.1373 14.1251 46.6273 14.0801 47.1273 14.0801ZM45.8473 20.4801C46.2523 20.4801 46.6473 20.5401 47.0473 20.5601C43.1323 22.4401 39.7473 25.2351 37.1673 28.6801C37.5623 26.0601 38.3773 23.5801 39.6073 21.3201C41.5973 20.7901 43.6873 20.4801 45.8473 20.4801ZM52.2473 21.3201C53.7223 21.7201 55.1373 22.3001 56.4873 22.9601C56.5823 23.3101 56.6873 23.6501 56.7673 24.0001C48.3973 26.2601 41.6373 32.4551 38.6073 40.4801C37.7373 38.3601 37.1523 36.0901 36.9673 33.7201C40.0523 27.6951 45.5873 23.1301 52.2473 21.3201ZM59.4873 24.6801C61.6023 26.1101 63.4423 27.8701 65.0073 29.8801C65.0173 30.1601 65.0473 30.4351 65.0473 30.7201C65.0473 34.7401 64.0923 38.5401 62.3673 41.8801C59.8523 46.7501 55.7073 50.6601 50.6873 52.9201C49.8423 52.5301 49.0373 52.0751 48.2473 51.6001C51.8973 49.0901 54.8773 45.7251 56.9273 41.7601C58.8323 38.0701 59.9273 33.8751 59.9273 29.4401C59.9273 27.8151 59.7623 26.2301 59.4873 24.6801ZM57.1673 26.5201C57.2773 27.4751 57.3673 28.4551 57.3673 29.4401C57.3673 29.8901 57.3523 30.3201 57.3273 30.7601C50.5023 34.0201 45.2523 40.0701 43.0873 47.4401C42.0323 46.3101 41.0573 45.1101 40.2473 43.8001C42.4173 35.4601 48.8973 28.8551 57.1673 26.5201ZM67.4473 33.6401C68.9223 36.4901 69.8473 39.6701 70.0873 43.0401C70.0673 43.0801 70.0673 43.1201 70.0473 43.1601C69.0723 45.0501 67.8623 46.7501 66.4873 48.2801L63.3673 45.1601C63.8073 44.4701 64.2323 43.7701 64.6073 43.0401C66.0873 40.1701 67.0773 36.9951 67.4473 33.6401ZM56.9673 33.8401C56.5373 36.2301 55.7673 38.5151 54.6873 40.6001C52.6823 44.4851 49.6573 47.7651 45.9673 50.0801C45.7123 49.8851 45.4573 49.6851 45.2073 49.4801C46.7773 42.7651 51.1173 37.1301 56.9673 33.8401Z" fill="black"/>
</g>
<rect x="0.5" y="17.2773" width="95.8148" height="29.4444" rx="2.5" fill="black" stroke="white"/>
<path d="M15.3262 33.7959C18.6282 33.7959 20.2542 32.2196 20.2542 29.5648C20.2542 26.827 18.6282 25.5328 15.2765 25.5328H11.8252V37.9274H14.4966V33.7959H15.3262ZM14.4966 27.0925H15.1271C16.7034 27.0925 17.5994 27.7728 17.5994 29.6145C17.5994 31.5227 16.9025 32.2362 15.2101 32.2362H14.4966V27.0925Z" fill="white"/>
<path d="M26.7407 30.1289C27.1058 30.1289 27.421 30.1787 27.7363 30.2285V28.0383C27.5206 28.0051 27.3049 27.9885 27.1224 27.9885C26.0936 27.9885 25.3967 28.536 24.5671 29.515V28.1212H21.9455V37.9274H24.6003V30.8424C25.2308 30.411 25.8447 30.1289 26.7407 30.1289Z" fill="white"/>
<path d="M36.1458 37.2969V35.3888C35.5651 35.9197 34.5695 36.3346 33.5574 36.3346C31.9977 36.3346 31.0353 35.4551 30.8694 33.4972H36.5607V32.2196C36.5607 29.6146 35.0673 28.0383 32.5453 28.0383C30.0066 28.0383 28.1648 29.9464 28.1648 33.0658C28.1648 36.1852 29.9568 38.0104 33.043 38.0104C34.3704 38.0104 35.4158 37.7283 36.1458 37.2969ZM32.5453 29.5648C33.491 29.5648 34.0718 30.3612 34.0718 32.1366H30.8528C30.9855 30.2617 31.6493 29.5648 32.5453 29.5648Z" fill="white"/>
<path d="M42.744 29.8468C43.6234 29.8468 43.9386 30.2451 43.9386 30.9917V37.9274H46.5934V30.6599C46.5934 30.494 46.5934 30.3446 46.5768 30.1953C46.9253 30.046 47.6388 29.8468 48.2195 29.8468C49.1155 29.8468 49.4142 30.2783 49.4142 31.0083V37.9274H52.0856V30.6599C52.0856 28.8347 51.0734 28.0383 49.5635 28.0383C48.1863 28.0383 47.0083 28.6854 46.2948 29.2163C45.8966 28.4033 45.1001 28.0383 44.088 28.0383C42.8269 28.0383 41.7982 28.5858 41.1179 29.0338V28.1212H38.4631V37.9274H41.1179V30.1621C41.5825 29.9796 42.1964 29.8468 42.744 29.8468Z" fill="white"/>
<path d="M57.0572 26.9929V24.7363H54.4024V26.9929H57.0572ZM57.0572 37.9274V28.1212H54.4024V37.9274H57.0572Z" fill="white"/>
<path d="M64.945 37.9274H67.5667V28.1212H64.9119V35.8036C64.58 35.9861 64.0159 36.235 63.319 36.235C62.34 36.235 62.0081 35.787 62.0081 35.0569V28.1212H59.3533V35.3224C59.3533 37.1476 60.4484 38.0104 62.0247 38.0104C63.4517 38.0104 64.3975 37.4794 64.945 37.0646V37.9274Z" fill="white"/>
<path d="M74.2449 29.8468C75.1243 29.8468 75.4396 30.2451 75.4396 30.9917V37.9274H78.0944V30.6599C78.0944 30.494 78.0944 30.3446 78.0778 30.1953C78.4262 30.046 79.1397 29.8468 79.7205 29.8468C80.6164 29.8468 80.9151 30.2783 80.9151 31.0083V37.9274H83.5865V30.6599C83.5865 28.8347 82.5744 28.0383 81.0644 28.0383C79.6873 28.0383 78.5092 28.6854 77.7957 29.2163C77.3975 28.4033 76.601 28.0383 75.5889 28.0383C74.3279 28.0383 73.2991 28.5858 72.6188 29.0338V28.1212H69.964V37.9274H72.6188V30.1621C73.0834 29.9796 73.6973 29.8468 74.2449 29.8468Z" fill="white"/>
<defs>
<clipPath id="clip0_196_2180">
<rect width="64" height="64" fill="white" transform="translate(16.4072)"/>
</clipPath>
</defs>
</svg>
