<svg width="32" height="32" viewBox="0 0 32 32" fill="none" xmlns="http://www.w3.org/2000/svg">
<g clip-path="url(#clip0_1735_506)">
<path d="M29.6999 0.119963C29.4949 0.134963 29.2849 0.177463 29.0799 0.219963C28.2599 0.394963 27.3799 0.774963 26.5199 1.21996C24.8099 2.10496 23.2599 3.22496 22.5999 3.91996H22.5799L18.2599 8.21996L2.89988 6.13996C2.69738 6.11746 2.49738 6.19246 2.35988 6.33996L0.179879 8.57996C0.0323793 8.73246 -0.0326206 8.94996 0.0123793 9.15746C0.0573794 9.36746 0.202379 9.53996 0.399879 9.61996L12.2399 14.26L6.13988 20.48H3.19988C3.04488 20.48 2.89488 20.5375 2.77988 20.64L0.219879 22.8C0.0298793 22.955 -0.0551207 23.2025 -0.000120658 23.44C0.0548793 23.68 0.242379 23.865 0.479879 23.92L6.57988 25.42L8.07988 31.52C8.13488 31.735 8.29988 31.905 8.50988 31.97C8.72238 32.035 8.95238 31.985 9.11988 31.84L11.2999 29.92C11.4399 29.8 11.5199 29.625 11.5199 29.44V25.86L17.7999 19.76L22.3799 31.6C22.4599 31.7975 22.6324 31.9425 22.8424 31.9875C23.0499 32.0325 23.2674 31.9675 23.4199 31.82L25.6599 29.64C25.8074 29.5025 25.8824 29.3025 25.8599 29.1L23.7799 13.74L28.0999 9.41996C28.7649 8.75496 29.8924 7.16996 30.7799 5.45996C31.2249 4.60496 31.6049 3.73496 31.7799 2.91996C31.9549 2.10496 31.9574 1.24496 31.3799 0.639963C31.3724 0.632463 31.3674 0.627463 31.3599 0.619963C31.0574 0.329963 30.6924 0.189963 30.2999 0.139963C30.1049 0.114963 29.9049 0.104962 29.6999 0.119963ZM29.7599 1.41996C30.1249 1.39496 30.3374 1.46996 30.4399 1.55996C30.5624 1.69746 30.6524 2.04246 30.5199 2.65996C30.3849 3.28746 30.0524 4.08746 29.6399 4.87996C28.8149 6.46746 27.6249 8.07496 27.1999 8.49996L22.6599 13.06C22.5174 13.1925 22.4449 13.385 22.4599 13.58L24.5399 28.96L23.2399 30.22L18.6399 18.4C18.5649 18.2 18.3924 18.05 18.1849 18C17.9749 17.9525 17.7549 18.0125 17.5999 18.16L10.4399 25.14C10.3124 25.26 10.2424 25.425 10.2399 25.6V29.16L9.05988 30.18L7.71988 24.74C7.66238 24.515 7.48488 24.3375 7.25988 24.28L1.99988 22.98L3.43988 21.76H6.39988C6.57488 21.7575 6.73988 21.6875 6.85988 21.56L13.8399 14.46C13.9874 14.305 14.0474 14.085 13.9999 13.875C13.9499 13.6675 13.7999 13.495 13.5999 13.42L1.77988 8.77996L3.03988 7.45996L18.4199 9.53996C18.6149 9.55497 18.8074 9.48246 18.9399 9.33996L23.4999 4.79996C23.8699 4.40746 25.5049 3.18496 27.0999 2.35996C27.8974 1.94746 28.7074 1.61496 29.3399 1.47996C29.4949 1.44746 29.6374 1.42746 29.7599 1.41996Z" fill="#251000"/>
</g>
<defs>
<clipPath id="clip0_1735_506">
<rect width="32" height="32" fill="white"/>
</clipPath>
</defs>
</svg>
