<svg width="97" height="64" viewBox="0 0 97 64" fill="none" xmlns="http://www.w3.org/2000/svg">
<path fill-rule="evenodd" clip-rule="evenodd" d="M35.2869 3.73935C36.725 1.36195 39.228 0.0286378 41.82 0.000402642C43.1132 -0.0127737 44.4275 0.297195 45.6435 0.967308L46.4891 1.43054C47.6919 2.09312 49.1264 2.09312 50.3273 1.43054L51.1729 0.967308C54.8246 -1.03927 59.376 0.17599 61.5331 3.74303L62.0295 4.56287C62.741 5.73934 63.9863 6.45563 65.3567 6.48198L66.3199 6.50404C70.4855 6.59063 73.8159 9.91916 73.9044 14.0885L73.9228 15.0518C73.951 16.4221 74.6673 17.6674 75.8419 18.379L76.6654 18.8753C80.2325 21.0324 81.4515 25.5874 79.4412 29.2392L78.9779 30.0811C78.3172 31.2839 78.3172 32.7165 78.9779 33.9193L79.4412 34.7649C81.4496 38.4166 80.2324 42.968 76.6691 45.1251L75.8419 45.6251C74.6692 46.3366 73.951 47.5783 73.9228 48.9486L73.9044 49.9118C73.8178 54.0793 70.4874 57.4134 66.3199 57.5L65.3567 57.5184C63.9844 57.5467 62.741 58.2629 62.0295 59.4375L61.5295 60.261C59.3742 63.8243 54.8228 65.0415 51.1729 63.0331L50.3273 62.5735C49.1245 61.9109 47.69 61.9073 46.4891 62.5699L45.6435 63.0368C44.4557 63.6899 43.1695 64 41.9046 64C39.2824 64 36.7401 62.663 35.2869 60.2574L34.7869 59.4375C34.0754 58.2611 32.8338 57.5448 31.4634 57.5184L30.5002 57.4964C26.3346 57.4098 23.0005 54.0812 22.912 49.9118L22.8936 48.9486C22.8654 47.5783 22.1491 46.333 20.9745 45.6214L20.151 45.1251C16.5839 42.968 15.3649 38.413 17.3752 34.7612L17.8385 33.9193C18.4992 32.7165 18.4992 31.2839 17.8385 30.0811L17.3752 29.2392C15.3668 25.5874 16.584 21.0324 20.1473 18.8753L20.9745 18.379C22.1472 17.6674 22.8654 16.4221 22.8936 15.0518L22.912 14.0885C22.9986 9.92105 26.329 6.59063 30.4965 6.50404L31.4597 6.48198C32.832 6.45374 34.0754 5.74113 34.7869 4.56655L35.2869 3.73935ZM36.5533 6.46455C37.8527 4.3165 40.1142 3.11181 42.4561 3.0863C43.6246 3.0744 44.8121 3.35446 45.9108 3.95993L46.6748 4.37847C47.7616 4.97714 49.0577 4.97714 50.1428 4.37847L50.9068 3.95993C54.2062 2.14693 58.3185 3.24495 60.2676 6.46787L60.716 7.20863C61.3589 8.2716 62.4841 8.91879 63.7222 8.9426L64.5925 8.96253C68.3563 9.04076 71.3654 12.0482 71.4454 15.8154L71.462 16.6857C71.4875 17.9238 72.1347 19.049 73.196 19.6919L73.94 20.1403C77.163 22.0894 78.2644 26.2049 76.448 29.5044L76.0294 30.2651C75.4325 31.3519 75.4325 32.6462 76.0294 33.733L76.448 34.497C78.2627 37.7965 77.1629 41.9087 73.9434 43.8578L73.196 44.3096C72.1364 44.9525 71.4875 46.0743 71.462 47.3125L71.4454 48.1828C71.3671 51.9482 68.358 54.9607 64.5925 55.0389L63.7222 55.0555C62.4824 55.081 61.3589 55.7282 60.716 56.7895L60.2642 57.5336C58.3169 60.7531 54.2045 61.8529 50.9068 60.0382L50.1428 59.623C49.056 59.0243 47.7599 59.021 46.6748 59.6196L45.9108 60.0415C44.8376 60.6317 43.6755 60.9118 42.5325 60.9118C40.1634 60.9118 37.8663 59.7038 36.5533 57.5303L36.1016 56.7895C35.4587 55.7265 34.3368 55.0793 33.0987 55.0555L32.2284 55.0356C28.4646 54.9574 25.4521 51.9499 25.3722 48.1828L25.3556 47.3125C25.3301 46.0743 24.6829 44.9491 23.6216 44.3063L22.8775 43.8578C19.6546 41.9087 18.5532 37.7932 20.3696 34.4937L20.7881 33.733C21.3851 32.6462 21.3851 31.3519 20.7881 30.2651L20.3696 29.5044C18.5549 26.2049 19.6547 22.0894 22.8742 20.1403L23.6216 19.6919C24.6812 19.049 25.3301 17.9238 25.3556 16.6857L25.3722 15.8154C25.4504 12.0499 28.4596 9.04076 32.225 8.96253L33.0954 8.9426C34.3352 8.91709 35.4587 8.27322 36.1016 7.21195L36.5533 6.46455Z" fill="black"/>
<mask id="path-2-inside-1_196_2167" fill="white">
<path d="M42.613 3.8402C40.332 3.86505 38.1293 5.0384 36.8637 7.13057L36.4237 7.85852C35.7976 8.89218 34.7033 9.5193 33.4957 9.54415L32.648 9.56356C28.9805 9.63976 26.0497 12.5706 25.9735 16.2381L25.9573 17.0858C25.9325 18.2917 25.3004 19.3876 24.2684 20.0138L23.5405 20.4506C20.4047 22.3489 19.3335 26.3574 21.101 29.5711L21.5087 30.312C22.0901 31.3705 22.0901 32.6312 21.5087 33.6897L21.101 34.4306C19.3319 37.6442 20.4046 41.6527 23.5437 43.5511L24.2684 43.9879C25.3021 44.614 25.9325 45.7099 25.9573 46.9159L25.9735 47.7635C26.0513 51.4327 28.9854 54.3619 32.6513 54.4381L33.4989 54.4575C34.7049 54.4807 35.7976 55.1111 36.4237 56.1464L36.8637 56.8679C38.1425 58.9849 40.3799 60.1615 42.6874 60.1615C43.8006 60.1615 44.9325 59.8886 45.9777 59.3138L46.7219 58.9029C47.7787 58.3198 49.0411 58.323 50.0996 58.9061L50.8437 59.3106C54.0557 61.078 58.0611 60.0069 59.9578 56.8711L60.3978 56.1464C61.0239 55.1127 62.1182 54.4824 63.3258 54.4575L64.1734 54.4413C67.841 54.3651 70.7718 51.431 70.848 47.7635L70.8642 46.9159C70.889 45.7099 71.521 44.6173 72.553 43.9911L73.281 43.5511C76.4168 41.6527 77.488 37.6474 75.7205 34.4338L75.3128 33.6897C74.7314 32.6312 74.7314 31.3705 75.3128 30.312L75.7205 29.5711C77.4896 26.3574 76.4168 22.3489 73.2778 20.4506L72.553 20.0138C71.5194 19.3876 70.889 18.2917 70.8642 17.0858L70.848 16.2381C70.7702 12.569 67.8393 9.63976 64.1734 9.56356L63.3258 9.54415C62.1198 9.52096 61.0239 8.8906 60.3978 7.85529L59.961 7.1338C58.0626 3.99472 54.0574 2.92526 50.8437 4.6911L50.0996 5.09876C49.0428 5.68185 47.7804 5.68185 46.7219 5.09876L45.9777 4.6911C44.9076 4.10138 43.751 3.8286 42.613 3.8402Z"/>
</mask>
<path d="M42.613 3.8402C40.332 3.86505 38.1293 5.0384 36.8637 7.13057L36.4237 7.85852C35.7976 8.89218 34.7033 9.5193 33.4957 9.54415L32.648 9.56356C28.9805 9.63976 26.0497 12.5706 25.9735 16.2381L25.9573 17.0858C25.9325 18.2917 25.3004 19.3876 24.2684 20.0138L23.5405 20.4506C20.4047 22.3489 19.3335 26.3574 21.101 29.5711L21.5087 30.312C22.0901 31.3705 22.0901 32.6312 21.5087 33.6897L21.101 34.4306C19.3319 37.6442 20.4046 41.6527 23.5437 43.5511L24.2684 43.9879C25.3021 44.614 25.9325 45.7099 25.9573 46.9159L25.9735 47.7635C26.0513 51.4327 28.9854 54.3619 32.6513 54.4381L33.4989 54.4575C34.7049 54.4807 35.7976 55.1111 36.4237 56.1464L36.8637 56.8679C38.1425 58.9849 40.3799 60.1615 42.6874 60.1615C43.8006 60.1615 44.9325 59.8886 45.9777 59.3138L46.7219 58.9029C47.7787 58.3198 49.0411 58.323 50.0996 58.9061L50.8437 59.3106C54.0557 61.078 58.0611 60.0069 59.9578 56.8711L60.3978 56.1464C61.0239 55.1127 62.1182 54.4824 63.3258 54.4575L64.1734 54.4413C67.841 54.3651 70.7718 51.431 70.848 47.7635L70.8642 46.9159C70.889 45.7099 71.521 44.6173 72.553 43.9911L73.281 43.5511C76.4168 41.6527 77.488 37.6474 75.7205 34.4338L75.3128 33.6897C74.7314 32.6312 74.7314 31.3705 75.3128 30.312L75.7205 29.5711C77.4896 26.3574 76.4168 22.3489 73.2778 20.4506L72.553 20.0138C71.5194 19.3876 70.889 18.2917 70.8642 17.0858L70.848 16.2381C70.7702 12.569 67.8393 9.63976 64.1734 9.56356L63.3258 9.54415C62.1198 9.52096 61.0239 8.8906 60.3978 7.85529L59.961 7.1338C58.0626 3.99472 54.0574 2.92526 50.8437 4.6911L50.0996 5.09876C49.0428 5.68185 47.7804 5.68185 46.7219 5.09876L45.9777 4.6911C44.9076 4.10138 43.751 3.8286 42.613 3.8402Z" fill="#EC5E28"/>
<path d="M42.613 3.8402L42.5926 1.8403L42.5912 1.84032L42.613 3.8402ZM36.8637 7.13057L35.1525 6.0954L35.1521 6.09599L36.8637 7.13057ZM36.4237 7.85852L38.1343 8.89476L38.1353 8.8931L36.4237 7.85852ZM33.4957 9.54415L33.4546 7.54457L33.4499 7.54467L33.4957 9.54415ZM32.648 9.56356L32.6896 11.5631L32.6938 11.563L32.648 9.56356ZM25.9735 16.2381L23.9739 16.1966L23.9738 16.2L25.9735 16.2381ZM25.9573 17.0858L27.9569 17.127L27.9569 17.124L25.9573 17.0858ZM24.2684 20.0138L25.2974 21.7288L25.3059 21.7237L24.2684 20.0138ZM23.5405 20.4506L22.5115 18.7356L22.5047 18.7397L23.5405 20.4506ZM21.101 29.5711L19.3486 30.5349L19.3487 30.5352L21.101 29.5711ZM21.5087 30.312L23.2616 29.3491L23.2609 29.3478L21.5087 30.312ZM21.5087 33.6897L23.2609 34.6538L23.2616 34.6526L21.5087 33.6897ZM21.101 34.4306L22.8531 35.3951L22.8533 35.3947L21.101 34.4306ZM23.5437 43.5511L22.5088 45.2625L22.5114 45.264L23.5437 43.5511ZM24.2684 43.9879L25.3047 42.2772L25.3008 42.2749L24.2684 43.9879ZM25.9573 46.9159L27.9569 46.8777L27.9569 46.8747L25.9573 46.9159ZM25.9735 47.7635L23.9738 47.8017L23.9739 47.806L25.9735 47.7635ZM32.6513 54.4381L32.6971 52.4386L32.6928 52.4385L32.6513 54.4381ZM33.4989 54.4575L33.4531 56.457L33.4605 56.4571L33.4989 54.4575ZM36.4237 56.1464L34.7123 57.1814L34.7162 57.1877L36.4237 56.1464ZM36.8637 56.8679L38.5756 55.8337L38.5712 55.8265L36.8637 56.8679ZM45.9777 59.3138L46.9415 61.0663L46.9445 61.0646L45.9777 59.3138ZM46.7219 58.9029L45.7557 57.1517L45.7551 57.1521L46.7219 58.9029ZM50.0996 58.9061L49.1346 60.658L49.1446 60.6634L50.0996 58.9061ZM50.8437 59.3106L51.808 57.5583L51.7988 57.5533L50.8437 59.3106ZM59.9578 56.8711L58.2482 55.8331L58.2465 55.836L59.9578 56.8711ZM60.3978 56.1464L62.1073 57.1843L62.1084 57.1826L60.3978 56.1464ZM63.3258 54.4575L63.2876 52.4579L63.2846 52.4579L63.3258 54.4575ZM64.1734 54.4413L64.2116 56.441L64.215 56.4409L64.1734 54.4413ZM70.848 47.7635L72.8476 47.8051L72.8476 47.8017L70.848 47.7635ZM70.8642 46.9159L68.8646 46.8747L68.8645 46.8777L70.8642 46.9159ZM72.553 43.9911L71.5185 42.2795L71.5156 42.2812L72.553 43.9911ZM73.281 43.5511L74.3156 45.2627L74.3168 45.262L73.281 43.5511ZM75.7205 34.4338L73.9664 35.3947L73.968 35.3977L75.7205 34.4338ZM75.3128 33.6897L77.0669 32.7288L77.0658 32.7268L75.3128 33.6897ZM75.3128 30.312L73.5605 29.3478L73.5599 29.3491L75.3128 30.312ZM75.7205 29.5711L73.9684 28.6065L73.9682 28.6069L75.7205 29.5711ZM73.2778 20.4506L74.3127 18.7392L74.3101 18.7376L73.2778 20.4506ZM72.553 20.0138L71.5168 21.7244L71.5207 21.7267L72.553 20.0138ZM70.8642 17.0858L68.8645 17.1239L68.8646 17.127L70.8642 17.0858ZM70.848 16.2381L72.8476 16.2L72.8476 16.1957L70.848 16.2381ZM64.1734 9.56356L64.1277 11.563L64.1319 11.5631L64.1734 9.56356ZM63.3258 9.54415L63.3716 7.54466L63.3642 7.54452L63.3258 9.54415ZM60.3978 7.85529L62.1091 6.82026L62.1087 6.81954L60.3978 7.85529ZM59.961 7.1338L58.2496 8.16876L58.2501 8.16955L59.961 7.1338ZM50.8437 4.6911L51.8046 6.44514L51.8069 6.44391L50.8437 4.6911ZM50.0996 5.09876L49.1387 3.34471L49.1335 3.3476L50.0996 5.09876ZM46.7219 5.09876L47.6869 3.34696L47.6828 3.34472L46.7219 5.09876ZM45.9777 4.6911L45.0124 6.44273L45.0168 6.44514L45.9777 4.6911ZM42.5912 1.84032C39.6405 1.87246 36.7878 3.39196 35.1525 6.0954L38.575 8.16573C39.4708 6.68484 41.0234 5.85763 42.6348 5.84008L42.5912 1.84032ZM35.1521 6.09599L34.7121 6.82394L38.1353 8.8931L38.5753 8.16514L35.1521 6.09599ZM34.7131 6.82228C34.4442 7.26618 33.9821 7.53372 33.4546 7.54457L33.5368 11.5437C35.4245 11.5049 37.1509 10.5182 38.1343 8.89476L34.7131 6.82228ZM33.4499 7.54467L32.6023 7.56409L32.6938 11.563L33.5415 11.5436L33.4499 7.54467ZM32.6065 7.56399C27.867 7.66247 24.0724 11.457 23.9739 16.1966L27.973 16.2797C28.027 13.6842 30.0941 11.6171 32.6896 11.5631L32.6065 7.56399ZM23.9738 16.2L23.9577 17.0476L27.9569 17.124L27.9731 16.2763L23.9738 16.2ZM23.9577 17.0446C23.947 17.5659 23.6783 18.0325 23.231 18.3039L25.3059 21.7237C26.9226 20.7428 27.9179 19.0176 27.9569 17.127L23.9577 17.0446ZM23.2395 18.2988L22.5115 18.7356L24.5695 22.1656L25.2974 21.7288L23.2395 18.2988ZM22.5047 18.7397C18.4501 21.1943 17.0652 26.3834 19.3486 30.5349L22.8534 28.6072C21.6018 26.3315 22.3594 23.5036 24.5762 22.1615L22.5047 18.7397ZM19.3487 30.5352L19.7564 31.2761L23.2609 29.3478L22.8533 28.6069L19.3487 30.5352ZM19.7557 31.2749C20.0078 31.7337 20.0078 32.268 19.7557 32.7268L23.2616 34.6526C24.1725 32.9944 24.1725 31.0073 23.2616 29.3491L19.7557 31.2749ZM19.7564 32.7256L19.3487 33.4665L22.8533 35.3947L23.2609 34.6538L19.7564 32.7256ZM19.349 33.4661C17.0627 37.619 18.4509 42.8085 22.5088 45.2625L24.5787 41.8397C22.3583 40.4969 21.601 37.6695 22.8531 35.3951L19.349 33.4661ZM22.5114 45.264L23.2361 45.7008L25.3008 42.2749L24.5761 41.8381L22.5114 45.264ZM23.2322 45.6985C23.6788 45.969 23.947 46.4343 23.9577 46.9571L27.9569 46.8747C27.918 44.9856 26.9255 43.2591 25.3047 42.2772L23.2322 45.6985ZM23.9577 46.954L23.9738 47.8017L27.9731 47.7254L27.9569 46.8777L23.9577 46.954ZM23.9739 47.806C24.0745 52.5476 27.8729 56.3392 32.6097 56.4377L32.6928 52.4385C30.0979 52.3846 28.0281 50.3178 27.973 47.7211L23.9739 47.806ZM32.6055 56.4376L33.4531 56.457L33.5447 52.458L32.6971 52.4386L32.6055 56.4376ZM33.4605 56.4571C33.9787 56.4671 34.4406 56.732 34.7124 57.1814L38.1351 55.1113C37.1545 53.4901 35.4311 52.4943 33.5374 52.4579L33.4605 56.4571ZM34.7162 57.1877L35.1562 57.9092L38.5712 55.8265L38.1312 55.105L34.7162 57.1877ZM35.1518 57.902C36.8044 60.6377 39.7022 62.1615 42.6874 62.1615V58.1615C41.0576 58.1615 39.4807 57.3321 38.5756 55.8337L35.1518 57.902ZM42.6874 62.1615C44.1286 62.1615 45.5932 61.8077 46.9415 61.0663L45.014 57.5613C44.2718 57.9695 43.4725 58.1615 42.6874 58.1615V62.1615ZM46.9445 61.0646L47.6886 60.6537L45.7551 57.1521L45.011 57.563L46.9445 61.0646ZM47.688 60.6541C48.1393 60.4051 48.6727 60.4035 49.1346 60.6579L51.0646 57.1543C49.4095 56.2426 47.4181 56.2346 45.7557 57.1517L47.688 60.6541ZM49.1446 60.6634L49.8887 61.0678L51.7988 57.5533L51.0546 57.1489L49.1446 60.6634ZM49.8795 61.0628C54.03 63.3467 59.2164 61.9611 61.6691 57.9062L58.2465 55.836C56.9057 58.0526 54.0814 58.8094 51.808 57.5583L49.8795 61.0628ZM61.6673 57.909L62.1073 57.1843L58.6882 55.1084L58.2482 55.8331L61.6673 57.909ZM62.1084 57.1826C62.3792 56.7356 62.8431 56.4679 63.3669 56.4571L63.2846 52.4579C61.3933 52.4968 59.6687 53.4898 58.6872 55.1101L62.1084 57.1826ZM63.3639 56.4571L64.2116 56.441L64.1353 52.4417L63.2876 52.4579L63.3639 56.4571ZM64.215 56.4409C68.9558 56.3424 72.7491 52.5434 72.8476 47.8051L68.8484 47.722C68.7945 50.3187 66.7261 52.3879 64.1319 52.4418L64.215 56.4409ZM72.8476 47.8017L72.8638 46.954L68.8645 46.8777L68.8484 47.7254L72.8476 47.8017ZM72.8638 46.9571C72.8745 46.4379 73.1414 45.9735 73.5905 45.701L71.5156 42.2812C69.9007 43.261 68.9036 44.982 68.8646 46.8747L72.8638 46.9571ZM73.5876 45.7027L74.3156 45.2627L72.2464 41.8395L71.5185 42.2795L73.5876 45.7027ZM74.3168 45.262C78.371 42.8076 79.7565 37.6219 77.4729 33.47L73.968 35.3977C75.2195 37.673 74.4625 40.4979 72.2452 41.8402L74.3168 45.262ZM77.4745 33.4729L77.0669 32.7288L73.5588 34.6506L73.9664 35.3947L77.4745 33.4729ZM77.0658 32.7268C76.8137 32.268 76.8137 31.7337 77.0658 31.2749L73.5599 29.3491C72.649 31.0073 72.649 32.9944 73.5599 34.6526L77.0658 32.7268ZM77.0651 31.2761L77.4727 30.5352L73.9682 28.6069L73.5605 29.3478L77.0651 31.2761ZM77.4725 30.5356C79.7588 26.3827 78.3705 21.1931 74.3127 18.7392L72.2428 22.162C74.4631 23.5047 75.2205 26.3322 73.9684 28.6065L77.4725 30.5356ZM74.3101 18.7376L73.5854 18.3008L71.5207 21.7267L72.2454 22.1635L74.3101 18.7376ZM73.5893 18.3032C73.1427 18.0327 72.8745 17.5674 72.8638 17.0446L68.8646 17.127C68.9035 19.0161 69.896 20.7426 71.5168 21.7244L73.5893 18.3032ZM72.8638 17.0476L72.8476 16.2L68.8484 16.2763L68.8645 17.1239L72.8638 17.0476ZM72.8476 16.1957C72.747 11.4553 68.953 7.66248 64.215 7.56399L64.1319 11.5631C66.7256 11.617 68.7933 13.6826 68.8485 16.2806L72.8476 16.1957ZM64.2192 7.56409L63.3716 7.54467L63.28 11.5436L64.1277 11.563L64.2192 7.56409ZM63.3642 7.54452C62.8439 7.53451 62.3798 7.26781 62.1091 6.82026L58.6864 8.89031C59.6681 10.5134 61.3958 11.5074 63.2873 11.5438L63.3642 7.54452ZM62.1087 6.81954L61.6719 6.09805L58.2501 8.16955L58.6869 8.89104L62.1087 6.81954ZM61.6724 6.09884C59.2178 2.03993 54.0317 0.657308 49.8806 2.93829L51.8069 6.44391C54.083 5.19322 56.9075 5.94951 58.2496 8.16876L61.6724 6.09884ZM49.8828 2.93706L49.1387 3.34472L51.0605 6.85279L51.8046 6.44514L49.8828 2.93706ZM49.1335 3.3476C48.6784 3.59864 48.1451 3.59937 47.6869 3.34696L45.7569 6.85055C47.4157 7.76432 49.4071 7.76505 51.0658 6.84991L49.1335 3.3476ZM47.6828 3.34472L46.9387 2.93706L45.0168 6.44514L45.761 6.8528L47.6828 3.34472ZM46.943 2.93947C45.5637 2.17932 44.0663 1.82529 42.5926 1.8403L42.6333 5.84009C43.4357 5.83192 44.2516 6.02344 45.0125 6.44273L46.943 2.93947Z" fill="white" mask="url(#path-2-inside-1_196_2167)"/>
<rect x="0.5" y="17.2773" width="95.8148" height="29.4444" rx="2.5" fill="black" stroke="white"/>
<path d="M23.4421 33.9232C23.4421 31.911 22.0443 30.8358 20.2626 30.8358H19.0338V27.7177H22.8891V26.2585H16.6683V32.0493H18.6959C20.0936 32.0493 20.9384 32.7712 20.9384 34.0921C20.9384 35.4438 20.1397 36.1811 18.7573 36.1811C17.8971 36.1811 17.0984 35.8739 16.4072 35.4285V37.1949C17.0677 37.456 17.9893 37.6249 19.1259 37.6249C21.5375 37.6249 23.4421 36.3347 23.4421 33.9232Z" fill="white" fill-opacity="0.92"/>
<path d="M32.82 31.911C32.82 27.9021 31.3147 26.1817 28.7035 26.1817C26.1077 26.1817 24.6024 27.9021 24.6024 31.911C24.6024 35.9046 26.1077 37.6249 28.7035 37.6249C31.3147 37.6249 32.82 35.9046 32.82 31.911ZM27.1061 31.911C27.1061 28.5011 27.6898 27.5641 28.7035 27.5641C29.7327 27.5641 30.3163 28.5011 30.3163 31.911C30.3163 35.3209 29.7327 36.2425 28.7035 36.2425C27.6898 36.2425 27.1061 35.3209 27.1061 31.911Z" fill="white" fill-opacity="0.92"/>
<path d="M42.412 31.911C42.412 27.9021 40.9067 26.1817 38.2955 26.1817C35.6997 26.1817 34.1944 27.9021 34.1944 31.911C34.1944 35.9046 35.6997 37.6249 38.2955 37.6249C40.9067 37.6249 42.412 35.9046 42.412 31.911ZM36.6981 31.911C36.6981 28.5011 37.2818 27.5641 38.2955 27.5641C39.3247 27.5641 39.9083 28.5011 39.9083 31.911C39.9083 35.3209 39.3247 36.2425 38.2955 36.2425C37.2818 36.2425 36.6981 35.3209 36.6981 31.911Z" fill="white" fill-opacity="0.92"/>
<path d="M50.2941 37.5481C54.1494 37.5481 56.0848 35.6589 56.0848 31.7574C56.0848 28.0557 54.5181 26.0742 50.2326 26.0742H47.3449V37.5481H50.2941ZM49.8179 27.5027H50.5398C52.3062 27.5027 53.4889 28.5011 53.4889 31.7421C53.4889 35.1981 52.3369 36.1197 50.632 36.1197H49.8179V27.5027Z" fill="white" fill-opacity="0.92"/>
<path d="M60.7389 36.1657C59.8787 36.1657 59.4947 35.7357 59.4947 34.9216C59.4947 34.1075 59.848 33.7542 60.7235 33.6774L62.0445 33.5545V35.7817C61.7527 35.9661 61.3226 36.1657 60.7389 36.1657ZM62.1367 37.5481H64.456V31.4195C64.456 29.392 63.1811 28.3936 60.6621 28.3936C59.5715 28.3936 58.5578 28.5779 57.928 28.7929V30.5286C58.6499 30.16 59.5101 29.8989 60.3703 29.8989C61.5069 29.8989 62.0445 30.4672 62.0445 31.5117V32.2336L59.6791 32.6022C57.9741 32.8633 57.1754 33.7081 57.1754 35.1366C57.1754 36.6726 58.1277 37.6249 59.6944 37.6249C61.0154 37.6249 61.7373 37.0873 62.1367 36.688V37.5481Z" fill="white" fill-opacity="0.92"/>
<path d="M71.8417 36.0121L74.115 28.4704H72.1796L71.0583 32.4486C70.6129 34.0768 70.2903 35.3977 70.2596 35.6589H70.1982C70.1521 35.3824 69.7988 34.0768 69.338 32.4486L68.186 28.4704H65.5748L68.4932 37.2717H69.5531C69.0923 38.3776 68.4318 38.992 67.2644 38.992C66.8804 38.992 66.5271 38.9459 66.1278 38.823V40.359C66.5271 40.4512 66.8804 40.4973 67.3259 40.4973C69.7681 40.4973 70.9815 38.823 71.8417 36.0121Z" fill="white" fill-opacity="0.92"/>
<path d="M80.8523 34.8294C80.8523 32.3718 77.2427 32.0185 77.2427 30.6361C77.2427 30.16 77.596 29.8221 78.4101 29.8221C79.1473 29.8221 79.9768 30.0832 80.5605 30.4365V28.7161C80.0382 28.5318 79.2549 28.3936 78.3486 28.3936C76.2443 28.3936 74.9541 29.5302 74.9541 31.0509C74.9541 33.7235 78.5637 33.8157 78.5637 35.3056C78.5637 35.8739 78.1182 36.2118 77.2581 36.2118C76.4286 36.2118 75.5377 35.8739 74.9233 35.4438V37.2409C75.3688 37.4406 76.275 37.6249 77.2273 37.6249C79.4392 37.6249 80.8523 36.519 80.8523 34.8294Z" fill="white" fill-opacity="0.92"/>
</svg>
